<?xml version="1.0" encoding="UTF-8"?><svg id="Layer_2" xmlns="http://www.w3.org/2000/svg" viewBox="0 0 231.34 64"><defs><style>.cls-1{fill:#fff;}</style></defs><g id="Layer_1-2"><g><path class="cls-1" d="M13.43,53.5L0,10.5H10.38l5.1,18.19c1.43,5.16,2.72,10.01,3.72,15.37h.18c1.06-5.19,2.36-10.2,3.87-15.2l5.27-18.35h10.07l-14.11,43H13.43Z"/><path class="cls-1" d="M44.51,42.45l-2.97,11.05h-9.77L44.51,10.5h12.43l13.06,43h-10.19l-3.32-11.05h-11.98Zm10.62-7.26l-2.61-9.13c-.75-2.55-1.48-5.74-2.11-8.34h-.12c-.63,2.55-1.25,5.81-1.93,8.34l-2.49,9.13h9.25Z"/></g><rect class="cls-1" x="85.5" width="1" height="64"/><g><path class="cls-1" d="M106.25,31.65c0-8.22,5.43-12.98,11.69-12.98,3.2,0,5.78,1.51,7.45,3.21l-2.95,3.59c-1.24-1.16-2.58-1.97-4.37-1.97-3.4,0-6.08,2.99-6.08,7.96s2.37,8.05,5.99,8.05c2.03,0,3.63-1,4.84-2.31l2.95,3.51c-2.06,2.39-4.79,3.63-8,3.63-6.28,0-11.52-4.35-11.52-12.69Z"/><path class="cls-1" d="M128.21,38.66c0-3.97,3.16-6.12,10.62-6.91-.11-1.65-.93-2.73-2.98-2.73-1.58,0-3.16,.67-4.99,1.7l-1.99-3.67c2.39-1.46,5.09-2.48,8.05-2.48,4.82,0,7.49,2.75,7.49,8.53v10.78h-4.56l-.4-1.93h-.14c-1.59,1.39-3.37,2.39-5.48,2.39-3.44,0-5.62-2.51-5.62-5.68Zm10.62-.25v-3.29c-3.97,.54-5.27,1.67-5.27,3.1,0,1.21,.84,1.81,2.16,1.81s2.11-.63,3.1-1.61Z"/><path class="cls-1" d="M149.1,25.04h4.56l.4,3.29h.14c1.37-2.52,3.43-3.75,5.35-3.75,1.08,0,1.7,.14,2.25,.38l-.93,4.82c-.67-.17-1.23-.3-2.03-.3-1.42,0-3.15,.92-4.15,3.49v10.92h-5.59V25.04Z"/><path class="cls-1" d="M162.75,34.47c0-6.11,4.36-9.89,8.89-9.89,5.37,0,8.03,3.9,8.03,9.05,0,1.01-.13,2.01-.23,2.47h-11.28c.5,2.73,2.37,3.99,4.89,3.99,1.42,0,2.71-.43,4.08-1.23l1.85,3.37c-1.93,1.34-4.45,2.12-6.69,2.12-5.37,0-9.54-3.63-9.54-9.87Zm12.15-2.07c0-2.07-.9-3.56-3.13-3.56-1.77,0-3.29,1.18-3.67,3.56h6.8Z"/><path class="cls-1" d="M182.43,34.47c0-6.11,4.36-9.89,8.89-9.89,5.37,0,8.03,3.9,8.03,9.05,0,1.01-.13,2.01-.23,2.47h-11.28c.5,2.73,2.37,3.99,4.89,3.99,1.42,0,2.71-.43,4.08-1.23l1.85,3.37c-1.93,1.34-4.45,2.12-6.69,2.12-5.37,0-9.54-3.63-9.54-9.87Zm12.15-2.07c0-2.07-.9-3.56-3.13-3.56-1.77,0-3.29,1.18-3.67,3.56h6.8Z"/><path class="cls-1" d="M203.21,25.04h4.56l.4,3.29h.14c1.37-2.52,3.43-3.75,5.35-3.75,1.08,0,1.7,.14,2.25,.38l-.93,4.82c-.67-.17-1.23-.3-2.03-.3-1.42,0-3.15,.92-4.15,3.49v10.92h-5.58V25.04Z"/><path class="cls-1" d="M216.36,41.71l2.51-3.48c1.71,1.29,3.29,1.98,4.86,1.98,1.66,0,2.38-.63,2.38-1.62,0-1.24-1.87-1.8-3.81-2.57-2.31-.89-4.99-2.43-4.99-5.54,0-3.51,2.85-5.9,7.2-5.9,2.89,0,5.04,1.17,6.64,2.39l-2.5,3.35c-1.34-.97-2.66-1.61-3.97-1.61-1.44,0-2.15,.56-2.15,1.51,0,1.2,1.77,1.66,3.72,2.37,2.39,.88,5.08,2.23,5.08,5.67s-2.69,6.08-7.74,6.08c-2.49,0-5.33-1.08-7.24-2.63Z"/></g></g></svg>