<svg id="Group_1980" data-name="Group 1980" xmlns="http://www.w3.org/2000/svg" width="774.809" height="774.809" viewBox="0 0 774.809 774.809">
  <path id="Path_1030" data-name="Path 1030" d="M97.971,63.406A21.409,21.409,0,0,1,81.756,37.814a21.086,21.086,0,0,1,1.541-4.49C92.248,38.9,97.09,36.4,106.335,31.416s14.674-4.256,16,0a38.43,38.43,0,0,0-19.517,26.707,18.928,18.928,0,0,1,6.6-22.452A18.2,18.2,0,0,0,97.971,64.14" transform="translate(179.229 382.109)" fill="#fff"/>
  <path id="Path_1031" data-name="Path 1031" d="M98.349,30.8a20.529,20.529,0,0,1,5.43-3.228C91.6,25.227,89.1,38.728,82.06,39.608a9.4,9.4,0,0,0,11.3-3.082c3.522,0,7.924-2.054,5.283-5.576Z" transform="translate(190.591 373.33)" fill="#fff"/>
  <path id="Path_1032" data-name="Path 1032" d="M85.52,31.646c2.2-1.908,5.723.734,6.9-1.614s-2.054-5.283-7.484-5.723-9.832-6.457-11.3-5.43,4.255,6.9,4.549,12.033,2.348,9.245,5.283,7.631,0-4.989,2.055-6.9" transform="translate(72.083 256.559)" fill="#fff"/>
  <path id="Path_1033" data-name="Path 1033" d="M112.762,32.078c-2.054-2.2-5.723,0-6.75-2.788s2.935-4.989,8.364-4.4,10.712-4.989,11.886-3.669-5.136,6.163-6.31,11.3-3.669,8.658-6.457,6.6,1.174-4.843-.734-7.044" transform="translate(515.891 287.384)" fill="#fff"/>
  <path id="Path_1034" data-name="Path 1034" d="M140.027,90.035,83.53,31.044l3.962-1.614,56.643,59.138Z" transform="translate(210.692 402.438)" fill="#fff"/>
  <path id="Path_1035" data-name="Path 1035" d="M180.86,133.617,74.03,22.238l2.788-2.788,105.656,110.2Z" transform="translate(80.785 265.968)" fill="#fff"/>
  <path id="Path_1036" data-name="Path 1036" d="M96.962,167.3,285.235,24.662l-2.348-3.082L93.44,165.1Z" transform="translate(346.206 295.094)" fill="#fff"/>
  <path id="Path_1037" data-name="Path 1037" d="M138.023,64.729c-4.549-14.674-20.251-13.647-25.68-33.6,0-.88-1.027,0-1.027,0L94,43.745v.734A157.417,157.417,0,0,0,138.023,65.61c.88,0,1.174,0,0-.88" transform="translate(353.863 420.26)" fill="#fff"/>
  <path id="Path_1038" data-name="Path 1038" d="M104.636,34.91l-1.467,3.082L99.06,39.606l2.055-2.935Z" transform="translate(423.056 477.374)" fill="#fff"/>
  <path id="Path_1039" data-name="Path 1039" d="M104.333,32.13l3.815-3.815A8.718,8.718,0,0,1,104.04,26.7Z" transform="translate(491.155 365.107)" fill="#fff"/>
  <path id="Path_1040" data-name="Path 1040" d="M104.63,29.078l2.641-2.788a4.146,4.146,0,0,0,3.082,2.054,7.629,7.629,0,0,1-5.723.734" transform="translate(499.222 359.5)" fill="#fff"/>
  <path id="Path_1041" data-name="Path 1041" d="M106.351,24.88s0,4.4-1.321,5.283l5.43-3.522a3.975,3.975,0,0,1-4.109-1.761" transform="translate(504.693 340.22)" fill="#fff"/>
  <path id="Path_1042" data-name="Path 1042" d="M103.947,39.13a52.572,52.572,0,0,0-6.9,31.4,25.788,25.788,0,0,1-2.935,18.783c-9.392,6.457-10.565,5.576-10.565,5.576a210.657,210.657,0,0,0,6.6-30.376A35.209,35.209,0,0,1,104.828,39.13" transform="translate(210.966 535.08)" fill="#fff"/>
  <path id="Path_1043" data-name="Path 1043" d="M150.1,60.6A146.634,146.634,0,0,1,95.074,37.56c-2.935-2.054-1.908-7.19.88-5.136A208.135,208.135,0,0,0,150.4,59.865h0" transform="translate(344.425 436.864)" fill="#fff"/>
  <path id="Path_1044" data-name="Path 1044" d="M127.775,57.8A189.639,189.639,0,0,1,94.317,37.7c-2.935-3.082,0-6.457,2.348-4.7a210.261,210.261,0,0,0,31.4,24.36" transform="translate(341.367 444.651)" fill="#fff"/>
  <path id="Path_1045" data-name="Path 1045" d="M117.623,58.965C109.552,51.774,106.91,48.106,94,37.834c-2.935-3.082,0-6.163,2.348-4.256a321.973,321.973,0,0,1,21.718,24.946h0" transform="translate(336.99 451.118)" fill="#fff"/>
  <path id="Path_1046" data-name="Path 1046" d="M114.151,64.056l-6.163-18.93H88.03l16.142-11.74L98.009,14.31,114.151,26.2,130.439,14.31l-6.163,19.077,16.142,11.74H120.46Z" transform="translate(272.227 195.681)" fill="#fff"/>
  <path id="Path_1047" data-name="Path 1047" d="M111.277,61.866,105.114,42.79H85.01L101.3,31.05l-6.31-18.93,16.289,11.74,16.142-11.74-6.163,18.93L137.4,42.79H117.44Z" transform="translate(230.93 165.734)" fill="#fff"/>
  <path id="Path_1048" data-name="Path 1048" d="M112.29,58.316,106.127,39.24H86.17l16.142-11.593L96,8.57,112.29,20.31,128.432,8.57l-6.163,19.077L138.411,39.24H118.454Z" transform="translate(246.792 117.19)" fill="#fff"/>
  <path id="Path_1049" data-name="Path 1049" d="M116.02,58.316,109.857,39.24H89.9l16.142-11.593L99.879,8.57,116.02,20.31,132.162,8.57,126,27.647,142.288,39.24h-20.1Z" transform="translate(297.798 117.19)" fill="#fff"/>
  <path id="Path_1050" data-name="Path 1050" d="M117.171,61.866,111.154,42.79H91.05l16.142-11.74-6.163-18.93,16.142,11.74,16.289-11.74L127.3,31.05l16.142,11.74h-20.1Z" transform="translate(313.524 165.734)" fill="#fff"/>
  <path id="Path_1051" data-name="Path 1051" d="M141.136,73.163c.734,0,0-2.641,0-3.815a76.571,76.571,0,0,0-9.392-12.62c-3.962-4.7-8.511-8.218-12.033-13.207s-5.87-11.006-10.125-16c-6.6-8.218-7.19-10.859-19.223-8.364-3.815.734-16.876,2.495-12.913,4.989a257.338,257.338,0,0,1,49.012,37.713l3.669,5.43a28.249,28.249,0,0,1,4.109,8.8c-1.761-1.761-3.228-3.375-4.7-5.136a11.44,11.44,0,0,0-16.171-.7,7.976,7.976,0,0,0-.7.7,65.565,65.565,0,0,1,27,16.876c.88-3.669-1.467-12.326,1.614-13.647" transform="translate(117.427 249.674)" fill="#fff"/>
  <path id="Path_1052" data-name="Path 1052" d="M122.753,57.835q3.3,5.9,7.19,11.446a16.133,16.133,0,0,0,3.228,3.962c3.522,3.962,6.457,8.658,11.3,10.125V80.14A79.851,79.851,0,0,0,129.8,55.194a74.108,74.108,0,0,0-16.142-17.022,82.814,82.814,0,0,1,23.919,25.534,113.658,113.658,0,0,1,8.071,13.06c1.614,3.375,0,7.337,2.348,10.419,0-4.549,3.669-7.19,1.908-10.712-6.163-12.033-12.62-23.773-19.077-35.659A56.8,56.8,0,0,0,86.8,16.16c-2.2,0-11.006,0-10.859,3.228C85.92,27.9,100.3,34.063,110.72,43.308a47.168,47.168,0,0,1,11.3,14.674" transform="translate(106.902 220.979)" fill="#fff"/>
  <path id="Path_1053" data-name="Path 1053" d="M113.732,63.039c5.576,9.245,8.658,19.37,13.647,29.349,1.467,2.348,2.641,4.989,4.256,7.337s3.815,7.19,3.815,5.136a19.8,19.8,0,0,0-1.614-7.044,325.232,325.232,0,0,0-14.675-34.191c2.788,4.843,5.136,9.979,8.218,14.674a101.245,101.245,0,0,0,5.43,9.392v2.054c0,.734,0,0,1.027.881-1.174-12.033-4.109-23.919-6.017-35.952C114.025,41.908,96.416,19.6,77.633,13.88c-1.761,3.082,1.614,5.723,3.082,8.071,8.071,13.06,24.653,27.294,33.017,41.088" transform="translate(123.26 189.801)" fill="#fff"/>
  <path id="Path_1054" data-name="Path 1054" d="M108.352,65.571c4.7,13.794,4.109,28.322,9.392,41.822,1.174,3.228,4.549-1.321,4.7-2.788A60.643,60.643,0,0,0,119.8,77.457c-1.614-4.7-3.669-9.392-5.283-14.674,4.989,6.457,6.016,14.674,10.419,21.571a107.149,107.149,0,0,0,0-22.745,60.03,60.03,0,0,1-2.055-10.566,18.86,18.86,0,0,0-5.576-7.19A179.346,179.346,0,0,0,81.5,12.89a7.746,7.746,0,0,0-2.788.88C80.324,19.787,91.183,30.5,93.384,35.929a202.888,202.888,0,0,1,14.674,29.349" transform="translate(144.781 176.263)" fill="#fff"/>
  <path id="Path_1055" data-name="Path 1055" d="M94.349,74.544c0,6.75-1.027,13.354-1.321,20.251a14.606,14.606,0,0,0,2.641,8.658h1.467a44.16,44.16,0,0,0,2.788-20.4,271.228,271.228,0,0,0-3.082-44.023,369.4,369.4,0,0,1,6.75,56.79A102.656,102.656,0,0,0,109.17,63.1a77.437,77.437,0,0,0-7.044-27.441,73.225,73.225,0,0,0-13.06-17.9c-1.321-1.321-6.9-6.31-7.777-4.109s3.962,8.951,5.283,11.74A106.447,106.447,0,0,1,94.349,74.1" transform="translate(178.595 179.03)" fill="#fff"/>
  <path id="Path_1056" data-name="Path 1056" d="M83.661,78.347c0,.734,4.4,1.321,5.136-.734s2.054-6.457,2.935-9.832A155.071,155.071,0,0,0,93.786,49a117.269,117.269,0,0,0-1.174-12.62c1.908,1.761,1.614,4.549,2.054,6.75a124.261,124.261,0,0,1,0,29.349s0,.734.881,0a23.3,23.3,0,0,0,7.19-8.511,29.459,29.459,0,0,0,1.027-13.647A56.511,56.511,0,0,0,89.09,14.66a3.283,3.283,0,0,0-.88,1.027V33.3A155.841,155.841,0,0,1,82.78,77.32" transform="translate(200.436 200.467)" fill="#fff"/>
  <path id="Path_1057" data-name="Path 1057" d="M83.6,51.559a1.9,1.9,0,0,1,1.467.88,4.086,4.086,0,0,1,1.908,2.935c.88,1.761,4.4,1.614,5.136.734a46.255,46.255,0,0,0,14.674-25.68c0-4.843,0-12.18-2.641-13.647s-2.2,3.228-2.788,5.136a99.654,99.654,0,0,1-6.9,17.609A147.9,147.9,0,0,1,84.04,51.559" transform="translate(211.649 225.641)" fill="#fff"/>
  <path id="Path_1058" data-name="Path 1058" d="M84.785,46.729c-1.908,3.815,2.641,4.843,4.989,7.484,8.8-11.886,10.419-9.538,14.674-14.674a19.952,19.952,0,0,0,1.468-22.158A132.368,132.368,0,0,0,91.242,37.924a42.893,42.893,0,0,0-6.6,8.951" transform="translate(221.617 237.661)" fill="#fff"/>
  <path id="Path_1059" data-name="Path 1059" d="M82.195,41.135c.881,1.321,2.055,4.4,2.641,3.522a14.662,14.662,0,0,0,4.549-10.272,13.819,13.819,0,0,1,0-1.908,45.26,45.26,0,0,0,0-13.207c-3.815,1.321-4.989,5.136-6.75,8.071a9.6,9.6,0,0,0-1.027,7.044,17.41,17.41,0,0,0,0,6.75" transform="translate(179.891 263.506)" fill="#fff"/>
  <path id="Path_1060" data-name="Path 1060" d="M93.235,19.15a15.825,15.825,0,0,0-9.979,14.674c0,2.2-3.082,6.163,0,5.87A6.6,6.6,0,0,1,90.887,43.8c0,1.614,0,0,1.467,0a28.5,28.5,0,0,1,2.495-21.865c0-.88,0-2.641-1.174-2.495" transform="translate(188.22 261.865)" fill="#fff"/>
  <path id="Path_1061" data-name="Path 1061" d="M88.212,41a20.274,20.274,0,0,1,7.044-17.463c1.321-1.174,0-3.375-2.348-4.256a2.056,2.056,0,0,0-1.614,0,15.923,15.923,0,0,0-6.75,6.163,18.344,18.344,0,0,0,0,16.142c0,1.467,4.109.88,3.962-.734" transform="translate(198.967 261.438)" fill="#fff"/>
  <path id="Path_1062" data-name="Path 1062" d="M90.855,24.94c1.467-1.027,3.082-1.321,4.256-2.935s0-2.348-1.321-2.641-4.109,2.054-5.283,3.962a16.729,16.729,0,0,0-5.283,12.62A32.209,32.209,0,0,1,90.855,24.94" transform="translate(206.449 264.44)" fill="#fff"/>
  <path id="Path_1063" data-name="Path 1063" d="M85.915,33.528a20.329,20.329,0,0,0,6.75-5.576c2.2-2.641,4.109-1.027,5.136-3.082a4.09,4.09,0,0,0-.881-4.843c-.88-.587-4.7,0-7.044,1.614A14.668,14.668,0,0,0,83.42,33.234c0,1.027,1.761.734,2.495,0" transform="translate(209.188 270.82)" fill="#fff"/>
  <path id="Path_1064" data-name="Path 1064" d="M85.594,46.73c1.614.88,3.962,0,4.7,1.908s1.027,1.321,1.174,2.054c1.321,3.962-2.348,7.924.88,11.446,2.055-2.935,6.6-6.75,8.511-9.979a29.083,29.083,0,0,1,5.87-7.044c3.375-3.228,12.62-6.457,14.674-10.859a38.966,38.966,0,0,0,2.641-11.74c0-1.467,1.761-3.962,0-4.256s-11.74,4.843-14.674,6.75c-4.989,3.962-8.658,8.218-13.354,12.327A82.766,82.766,0,0,0,84.42,46.73" transform="translate(222.863 249.547)" fill="#fff"/>
  <path id="Path_1065" data-name="Path 1065" d="M97.651,30.448C92.662,35,84.591,42.628,85.178,48.5c0,1.761,5.576,0,8.071,1.174s.881,2.2,0,3.522a24,24,0,0,1,7.337.734c2.2.734,0,2.641,1.614,3.815s3.522,1.467,3.815,0a69.586,69.586,0,0,1,22.892-24.653c2.935-1.614,2.2-8.511,0-9.1-8.951-1.614-20.984,11.153-23.919,19.957-1.174-8.658,10.566-16.142,13.207-18.343s2.2-5.723,0-6.017c-6.017-.88-16.142,6.31-20.691,10.272" transform="translate(232.816 266.856)" fill="#fff"/>
  <path id="Path_1066" data-name="Path 1066" d="M93,37.123a14.643,14.643,0,0,0-2.935,6.457c0,2.054-4.843,7.631-2.935,8.8s4.256-1.467,5.136,0c4.7,8.218,9.685,3.082,10.272,7.337,0,1.174,3.082,0,3.669,0,6.163-6.457,23.479-17.756,21.865-28.028-3.962-2.641-9.392,0-12.914,2.641s-8.8,8.071-11.3,9.832,0-1.174,0-1.321a73.808,73.808,0,0,1,15.555-14.674c2.348-1.321,3.375-6.163,0-7.337-5.723-2.2-15.848,5.43-20.544,9.685-2.348,2.2-4.109,4.4-6.163,6.6" transform="translate(253.899 279.551)" fill="#fff"/>
  <path id="Path_1067" data-name="Path 1067" d="M177.641,88.313A15.313,15.313,0,0,0,182.19,86.7a46.309,46.309,0,0,0,14.674-12.62c2.935-4.4,6.6-7.924,9.538-12.473,0-.734,1.321-2.641,0-2.2s-4.7,4.256-7.631,5.87c5.723-9.392,13.354-13.5,11.152-22.892,0-1.908-9.1,6.75-11.3,8.8s-6.457,4.549-7.044,7.924a68.68,68.68,0,0,0,0,12.033c0,1.467,1.174,3.669,0,5.576s0,2.2-1.027,1.467,0-4.843-3.522-4.109-2.2,3.375-4.4,3.522c0-5.283,7.631-9.538,1.908-12.62-2.788-1.614-4.842,2.348-8.071,2.641,0-1.321,2.348-2.348,2.788-3.962a2.157,2.157,0,0,0-2.2-2.641,51.407,51.407,0,0,0-8.658,2.935c1.174-2.2,3.669-6.163,1.321-7.631s-5.43,2.348-8.511,3.375c0-2.788,2.641-5.576,1.174-7.777s-6.016,0-9.1,0c1.174-2.348,3.815-4.843,2.348-6.9s-7.777,0-11.886,0c1.027-2.2,3.522-4.256,2.054-5.576s-8.8.88-11.153,4.549V42.235a17.618,17.618,0,0,0,1.174-13.06c-.734-1.908-4.256,0-5.723-1.027,1.908-.88,5.136-1.761,5.429-3.815s0-3.815-1.614-3.962a16.005,16.005,0,0,0-14.674,9.392v2.495c0,.734-1.027,0-1.027,0a1.619,1.619,0,0,0-.147-2.275,1.654,1.654,0,0,0-.734-.367,2.965,2.965,0,0,0-2.495,0c-2.495,1.908-5.283,5.283-7.631,6.75,0-3.228,3.669-7.777,0-9.245s-4.7,3.228-7.484,4.989a3.659,3.659,0,0,0,0-4.256,3.808,3.808,0,0,0-5.092-1.776l-.044.015a14.675,14.675,0,0,0-7.19,12.033A34.555,34.555,0,0,1,85.926,30.5c0-1.321-1.761-2.641-2.2-2.348a7.055,7.055,0,0,0-1.541,9.847l.22.279c1.614,2.348,5.283,2.348,6.75,4.989a11.889,11.889,0,0,1,0,3.228c0-1.027-1.321-2.2-2.348-2.495s-2.788-1.027-2.935,0-2.348,8.8-1.321,11.153,1.174,8.951,5.283,10.712A90.443,90.443,0,0,1,130.683,95.21a132.117,132.117,0,0,1,44.023-7.19" transform="translate(173.811 278.547)" fill="#fff"/>
  <path id="Path_1068" data-name="Path 1068" d="M92.306,58.675a2.467,2.467,0,0,1,1.467-2.2c1.467-.587,2.495,0,3.669-.88s1.321-2.348,1.614-3.228A221.461,221.461,0,0,1,103.606,30.5a111.152,111.152,0,0,0,0,19.517c0,1.614,2.935,2.348,4.7,3.082s2.054-1.467,2.054-2.495A98.223,98.223,0,0,0,107.568,17s-3.962,2.788-4.4,2.935C86,29.767,90.692,57.208,92.306,59.116" transform="translate(305.811 232.465)" fill="#fff"/>
  <path id="Path_1069" data-name="Path 1069" d="M185.992,184.973A67.334,67.334,0,0,1,167.8,149.9v-2.641c2.935-.88,1.174-3.962,1.321-6.6a5.15,5.15,0,0,0,3.375,2.935c1.174,0,0-1.614,1.467-1.467s-1.174,1.027,0,1.908c-1.908,1.321-3.522,2.495-3.669,4.549a38.592,38.592,0,0,0,7.044,17.9,8.544,8.544,0,0,0,4.256,4.549,2.066,2.066,0,0,0,2.568-1.365l.073-.4a11.129,11.129,0,0,0,0-5.723,127.731,127.731,0,0,1-7.484-14.674c5.576,8.071,9.538,20.1,20.4,21.571,1.467,0,2.054-2.495,1.027-3.815-6.6-8.218-11.74-16-18.49-24.066a3.5,3.5,0,0,1-2.348-.88,63.864,63.864,0,0,0-16.435-7.19c0-.734-1.027-1.174,0-1.321s2.788,0,2.935-1.908.734-3.669,0-4.7-3.522,0-5.283,1.761-1.467,0-1.908,0a5.176,5.176,0,0,1-4.109,1.908c-2.641,0-2.2-3.228-2.641-5.43a1.448,1.448,0,0,0-1.027-.88,84.746,84.746,0,0,1-13.647,0c-1.027,0-1.174-1.174-1.761-1.761s0-.88,0-1.174,1.761,1.467,2.2,1.321,0-3.375,1.174-4.989,1.467,1.321,2.2,0a68.885,68.885,0,0,0,10.272-14.674c4.256-7.484,4.989-12.327,9.1-19.81V80.931a10.981,10.981,0,0,1,3.522-5.576s-1.908-1.614-1.321-2.495.294-.293.294-1.174-1.761-1.761-1.614-2.495,1.321-1.614,1.761-2.641-.88-2.348.881-3.522,1.027,0,1.321,0c2.788,1.614,1.908,3.375,1.174,5.283s2.348,0-1.174,5.283c-.881,1.321,1.321,2.2,0,5.136s-2.788,3.082-3.375,4.7a39.759,39.759,0,0,0-1.614,10.419,39.349,39.349,0,0,1-3.375,12.767c-1.321,3.375-4.4,5.723-5.136,9.1a2.2,2.2,0,0,0,2.935,2.641c1.321,0,1.027-2.054,2.054-3.082,0,3.228,0,9.538,4.549,7.777s1.027-5.283-.88-7.484,0-.88.88,0a4.683,4.683,0,0,0,2.495,2.788,2.047,2.047,0,0,0,2.8-.763l.132-.264c0-2.641-1.614-4.109-2.935-6.163s1.027,0,1.468,0,1.174,1.027,1.761,1.321a3.676,3.676,0,0,0,4.681-2.245,3.638,3.638,0,0,0,.161-.69c0-1.761-1.614-2.641-3.082-3.375,1.614-1.614,3.962-.88,4.4-3.522s-1.614-2.935-2.2-4.549c1.908,0,4.4,0,4.843-2.641s-2.348-2.2-4.109-1.761,0-1.174,0-1.467a8.777,8.777,0,0,0,5.576-3.669,10.526,10.526,0,0,0-6.017-2.935v-.88c0-.88.88.88,1.614,0s0-.88.88-1.027,4.7-1.467,4.7-3.082-4.989-1.614-4.255-4.256,2.495-1.467,3.082-2.641-2.2-2.348-1.908-3.375,4.109-1.027,4.7-2.935-1.614-2.054-3.082-3.082,0,0,0-1.027a5.86,5.86,0,0,0,6.163-2.495,2.78,2.78,0,0,0-.734-2.054c-.881-.881-3.082-1.614-2.788-2.054s5.576,0,5.87-2.495-2.641-2.788-4.109-4.4c2.2,0,5.429,1.321,5.87-1.467s-3.375-1.614-4.549-3.815c3.522,0,9.539,0,10.419-4.4s-4.256-1.174-6.6-1.174a1.458,1.458,0,0,0,0-1.467c3.669-1.027,8.951-1.467,8.8-6.016,0-1.761-2.348-2.641-4.109-2.495s-3.522,4.549-7.19,4.4a25.1,25.1,0,0,0,4.109-4.7c.881-1.908,2.2-3.375,2.054-5.283s-2.2,0-3.522,0-1.174,2.788-2.495,4.109-1.174,0-1.321,0a14.878,14.878,0,0,1,0-2.641c0-.88,0-4.4-1.027-4.256A4.834,4.834,0,0,0,175.72,23.7c-1.321-1.614,0-4.4-2.348-4.256s-2.495,3.669-2.348,6.163c-1.321-1.761-2.788-5.723-5.43-4.7-5.87,2.495-3.962,9.392-6.6,14.674V26.636s0-.734-1.027,0c-6.017,3.815-4.989,11.153-6.017,17.316a124,124,0,0,1-5.723,23.332,82.009,82.009,0,0,1-14.675,22.6,146.277,146.277,0,0,1-14.674,11.153A71.1,71.1,0,0,0,100,114.535c-1.908,2.2-3.815,4.549-2.495,7.337s1.908,0,2.348-1.174a4.239,4.239,0,0,0,2.788,1.614c3.082,0,2.495-2.641,1.761-4.549s1.761,1.614,2.788,1.761,2.935-2.495,3.962-4.256,0,0,1.027,0a8.046,8.046,0,0,1-1.761,6.31c-1.174,1.174-3.375-1.467-4.549,0s0,1.761,0,1.908,3.522-1.614,5.136-.88,0,2.2-1.321,2.641-3.962,1.027-4.842-1.027c-2.641,1.174-5.576,0-8.364,0A4.575,4.575,0,0,1,93.25,122.9c-5.576-5.136-5.576-14.674-4.843-12.18s-2.2,2.788-2.495,4.4,2.2,1.174,3.082,3.522-1.174,3.669,0,4.4a5.44,5.44,0,0,1,2.465,7.279A5.506,5.506,0,0,1,90.168,132v3.669a2.184,2.184,0,0,1-1.761,2.495,6.188,6.188,0,0,1,3.082,4.109l84.084,53.562a5.121,5.121,0,0,0,5.87,0Z" transform="translate(242.941 265.825)" fill="#fff"/>
  <path id="Path_1070" data-name="Path 1070" d="M99.65,39.14c3.815-4.256,6.6-10.419,12.327-12.913a139.848,139.848,0,0,0-9.1,13.354v2.788a12.986,12.986,0,0,0,6.6-2.2c2.641-1.614,5.87-2.348,7.044-4.256a49.556,49.556,0,0,0,6.017-13.647,3.086,3.086,0,0,0-1.394-4.138,3.716,3.716,0,0,0-.807-.264,28.048,28.048,0,0,0-14.674,3.962A35.851,35.851,0,0,0,92.9,34.3a3.964,3.964,0,0,0,0,4.843,3.672,3.672,0,0,0,6.163,0" transform="translate(327.523 244.224)" fill="#fff"/>
  <path id="Path_1071" data-name="Path 1071" d="M100.51,19.27c-2.495,1.761-6.6,1.027-7.19,5.136V26.9a10.771,10.771,0,0,1,5.43,3.522c2.935-2.788,6.163-7.777,4.255-11.153h-2.788" transform="translate(344.564 263.506)" fill="#fff"/>
  <path id="Path_1072" data-name="Path 1072" d="M98.159,21.479a17.33,17.33,0,0,0-4.109,2.935s1.761,0,2.055,1.467-2.348,8.071,0,7.631a20.63,20.63,0,0,1,5.283,0,30.758,30.758,0,0,0,9.979-13.941c-4.256-2.495-9.1.88-13.06,2.348" transform="translate(354.547 255.427)" fill="#fff"/>
  <path id="Path_1073" data-name="Path 1073" d="M107.624,30.232c3.228-3.375,5.723-6.9,4.843-8.8s-5.283-2.054-8.658-1.908a13.043,13.043,0,0,0-9.1,6.017c2.935,0,6.017.734,7.337,2.935s-1.174,3.669-2.641,5.283c2.2.88,6.75-1.908,8.218-3.522" transform="translate(363.572 266.338)" fill="#fff"/>
  <path id="Path_1074" data-name="Path 1074" d="M93.87,23.879a2.062,2.062,0,0,0,1.262,2.627l.059.015c3.962,0,6.9,2.054,10.419,1.761,1.321,0,4.843-4.256,5.136-5.723s-4.843-2.641-7.631-2.641a10.434,10.434,0,0,0-9.245,3.962" transform="translate(350.471 271.663)" fill="#fff"/>
  <path id="Path_1075" data-name="Path 1075" d="M109.05,24.736c0-3.082-7.631-3.815-12.18-4.256-2.2,0-3.522,2.348-3.082,2.788,2.935,2.788,5.283,2.348,8.071,4.989s7.484-1.908,7.19-3.522" transform="translate(349.819 280.052)" fill="#fff"/>
  <path id="Path_1076" data-name="Path 1076" d="M103.966,20.578c-2.054,0-5.723,0-5.87,1.761s3.815,2.348,3.228,4.4-3.815,3.522-6.017,4.989.881,3.669,2.2,3.522a34.91,34.91,0,0,0,21.571-9.538,16.9,16.9,0,0,0-14.674-5.136" transform="translate(361.213 279.073)" fill="#fff"/>
  <path id="Path_1077" data-name="Path 1077" d="M99.216,22.233a6.91,6.91,0,0,0-4.256-1.321s-1.908,2.348-1.174,2.935S99.363,28.1,102,30.3c0-2.348,3.669-1.174,3.669-2.2s-3.815-4.4-6.457-5.87" transform="translate(348.647 285.93)" fill="#fff"/>
  <path id="Path_1078" data-name="Path 1078" d="M106.615,30.5c0-3.962-4.256-6.75-7.924-8.658s-7.044,2.641-4.989,3.522,1.027,4.109,6.016,5.723c2.2.734,6.6.88,6.9,0" transform="translate(341.248 292.338)" fill="#fff"/>
  <path id="Path_1079" data-name="Path 1079" d="M113.76,25.563a7.488,7.488,0,0,0-7.631-4.109,43.713,43.713,0,0,0-11.3,3.669c3.962,1.614,4.843,5.283,7.484,6.31s6.457-1.908,11.446-4.4V25.563" transform="translate(365.213 292.578)" fill="#fff"/>
  <path id="Path_1080" data-name="Path 1080" d="M114.141,31.942a23.4,23.4,0,0,0-7.924-8.658c-1.614-.734-3.522,0-4.989-1.614a9.783,9.783,0,0,0-.881,1.174c0,1.467,2.495,2.641,1.467,3.962S95.8,27.833,93.89,30.621a17.167,17.167,0,0,0,20.251,1.321" transform="translate(352.359 296.325)" fill="#fff"/>
  <path id="Path_1081" data-name="Path 1081" d="M98.288,21.78a7.534,7.534,0,0,1-2.495,5.283c-1.321,1.027,0,2.935-2.2,4.549s0,1.027,0,.88c4.843-1.614,6.163-8.071,6.9-5.723A7.174,7.174,0,0,0,97.7,21.78" transform="translate(334.901 297.829)" fill="#fff"/>
  <path id="Path_1082" data-name="Path 1082" d="M93.981,28.367v.88a5.912,5.912,0,0,0,4.255,0A2.941,2.941,0,0,0,99,25.168a3.135,3.135,0,0,0-.763-.763L95.448,21.91c-1.027,1.467,1.027,2.788,0,4.109s-1.614,1.908-2.348,2.935" transform="translate(341.556 299.607)" fill="#fff"/>
  <path id="Path_1083" data-name="Path 1083" d="M106.58,69.214c2.054,0,4.7,1.467,5.43,2.935a10.886,10.886,0,0,1,0,9.979v1.761c7.484-5.723,8.364-17.316,12.473-26.12a96.96,96.96,0,0,0,8.511-21.131,32.462,32.462,0,0,0-2.2-22.305c-1.467-2.495-7.044,6.017-8.658,8.8a50.015,50.015,0,0,0-3.522,6.9,55.782,55.782,0,0,1-5.283,13.06c-2.2,3.815-4.843,8.8-7.337,12.473a191.584,191.584,0,0,1-12.913,15.7c3.522,0,9.832-2.788,13.354-2.054" transform="translate(341.283 189.79)" fill="#fff"/>
  <path id="Path_1084" data-name="Path 1084" d="M95.3,93.115c2.2,3.082,6.017-1.174,8.658,3.228,1.321,2.2,0,5.87.88,6.31,8.8,3.082,7.19-6.457,9.685-11.3,5.723-11.153,9.392-19.517,14.674-31.7a71.337,71.337,0,0,0,7.777-14.674,58.7,58.7,0,0,0-1.321-30.963s-.734-1.467-1.321-.88a112.843,112.843,0,0,0-12.62,25.68c-4.549,7.924-9.538,14.674-13.207,22.452-4.843,10.566-8.8,21.131-13.794,31.4" transform="translate(363.572 177.775)" fill="#fff"/>
  <path id="Path_1085" data-name="Path 1085" d="M133.95,64.747a14.474,14.474,0,0,0-3.522,5.43,102.748,102.748,0,0,1-10.859,27.588,48.1,48.1,0,0,1-7.777,9.538c-4.549,4.7-12.62,6.163-15.7,10.272,0,1.027,5.136,2.935,6.457,5.283s-3.962,3.815-2.641,7.19a50.182,50.182,0,0,0,24.213-10.566,29.357,29.357,0,0,0,9.685-17.316,157.73,157.73,0,0,0,25.24-28.615,112.682,112.682,0,0,0,19.223-38.74c0-2.495,3.669-8.364,4.4-10.272a23.112,23.112,0,0,0-1.027-11.3,66.264,66.264,0,0,0-14.674,17.022A430.921,430.921,0,0,1,133.95,64.747" transform="translate(382.443 181.049)" fill="#fff"/>
  <path id="Path_1086" data-name="Path 1086" d="M157.131,54.441a180.736,180.736,0,0,0-18.49,17.609,9.54,9.54,0,0,0-2.2,3.375,35.2,35.2,0,0,1-12.473,18.783,46.093,46.093,0,0,1-26.561,10.712s0,.734-1.027,1.027,1.027,4.4,2.348,4.109a114.3,114.3,0,0,0,41.235-15.7c9.245-6.163,13.354-17.9,21.865-24.653C176.5,57.522,203.8,45.783,203.062,15.26a14.587,14.587,0,0,0-5.136,2.935c-6.75,6.163-14.674,16.435-22.892,22.012s-11.006,8.951-18.05,14.674" transform="translate(382.594 208.672)" fill="#fff"/>
  <path id="Path_1087" data-name="Path 1087" d="M182.443,59.434c2.2-1.321,3.522-3.228,5.723-4.549a42.512,42.512,0,0,0,8.952-9.538s1.321-2.348,1.467-1.908a80.093,80.093,0,0,0,14.674-22.305c0-.734,0-3.815-1.321-3.669a48.455,48.455,0,0,0-14.674,8.071,162.044,162.044,0,0,0-33.458,23.626,135.83,135.83,0,0,1-22.452,21.571,62.952,62.952,0,0,1-13.941,6.457,157.472,157.472,0,0,1-22.305,6.6,2.5,2.5,0,0,1-1.321,2.054c-1.321.734,0,.88,0,.88a100.935,100.935,0,0,0,27.441-2.641c11.153-2.641,21.571-3.522,32.284-6.75a195.3,195.3,0,0,1-62.22,12.326,16.791,16.791,0,0,0-5.723,3.082A20.557,20.557,0,0,0,107.456,94.8c13.794,0,28.028-1.614,41.675-2.348-5.283,3.082-12.033,1.174-17.169,4.7,5.576,1.027,5.576,7.337,8.951,7.337a96.071,96.071,0,0,0,30.963-4.843c3.375-1.174,6.9-2.348,10.125-3.815A25.266,25.266,0,0,0,193.155,87.9l1.761-2.495a9.24,9.24,0,0,0-9.832-2.054,156.938,156.938,0,0,1-22.892,6.6,8.365,8.365,0,0,1-4.255,0,94.686,94.686,0,0,0,32.137-14.674c6.163-4.843,19.224-13.647,22.305-20.691-6.6-2.054-20.251,4.7-26.561,5.87-2.641,0-5.43,2.495-8.364,3.082a14.5,14.5,0,0,1,4.7-4.256" transform="translate(375.332 238.75)" fill="#fff"/>
  <path id="Path_1088" data-name="Path 1088" d="M129.353,23.489c-6.9,1.321-13.354,1.027-20.1,2.054a30.711,30.711,0,0,0-11.3,4.843c1.761,1.614,2.641,4.256,4.7,5.283A24.973,24.973,0,0,0,115.853,36.7c3.082,0,6.163,0,8.218-3.228-1.321-.88-2.054-2.641-1.321-2.935,3.522-1.321,6.31-1.614,8.511-4.549s-1.321-2.641-1.908-2.495" transform="translate(407.877 320.039)" fill="#fff"/>
  <path id="Path_1089" data-name="Path 1089" d="M147.331,37.091c2.495,0,6.75-1.174,6.75-3.962a8.365,8.365,0,0,0-7.631-7.337,298.567,298.567,0,0,1-36.539-3.082c-4.549,3.962-10.419,3.375-15.7,4.843a102.767,102.767,0,0,0,53.121,9.538" transform="translate(356.735 310.546)" fill="#fff"/>
  <path id="Path_1090" data-name="Path 1090" d="M98.593,33.8s-2.2-1.321-1.174-1.321A91.944,91.944,0,0,1,119.87,38.2a39.434,39.434,0,0,0,9.539,3.522,47.248,47.248,0,0,0,27.441,0c-1.321-3.815-4.109-7.924-8.511-7.924A97.416,97.416,0,0,1,99.033,23.09c-6.31,1.174-3.669,17.463-3.228,18.49,1.908,4.256,7.337,4.989,10.712,8.071-4.256-1.321-12.62-7.777-12.767,0a13.4,13.4,0,0,0,2.495,6.457,52.578,52.578,0,0,0,18.783,16.142,22.714,22.714,0,0,0,17.022,4.7c2.054,0,1.174-3.815,0-5.283s-3.669-1.174-5.576-1.614a74.71,74.71,0,0,1-31.55-19.957c6.457,2.935,11.006,8.218,17.316,11.74a27.588,27.588,0,0,0,21.425,5.283c2.641-.88.88-5.43-1.027-5.87l-7.924-2.935a44.223,44.223,0,0,1-11.006-5.283c8.071,1.761,15.555,6.9,24.213,4.843,0-4.256-3.669-6.75-6.31-9.392A73.491,73.491,0,0,0,98.152,33.8" transform="translate(350.445 315.742)" fill="#fff"/>
  <path id="Path_1091" data-name="Path 1091" d="M122.194,24.666c-1.027,0,0,2.788-1.467,3.228a34.893,34.893,0,0,1-14.674.88c-3.082,0-6.016-.734-9.1-1.027,0,0-.734,0,0,.734s7.337,7.044,5.429,9.979-1.908,4.549.881,5.136,6.016,0,6.457-2.2-1.761-5.87-3.522-7.924l4.843,2.2a13.53,13.53,0,0,0,5.43,0,88.932,88.932,0,0,0,14.674-2.641c0-4.549-3.375-8.951-8.071-8.658" transform="translate(389.797 333.096)" fill="#fff"/>
  <path id="Path_1092" data-name="Path 1092" d="M111.062,39.044c-5.43-4.109-9.538-9.392-14.674-13.794,0,1.174-1.908,0-2.495.88s0,4.4,0,6.017A36.125,36.125,0,0,0,104.9,43.74a72.444,72.444,0,0,0,12.033,7.631,12.165,12.165,0,0,0,9.245,1.467c1.614,0,1.321-3.082,0-3.815-4.7-4.109-10.859-6.163-15.995-9.979" transform="translate(348.834 345.279)" fill="#fff"/>
  <path id="Path_1093" data-name="Path 1093" d="M107.218,35.9c-3.815-3.082-6.457-7.19-10.272-9.979,0,1.027-1.908,0-2.348,0a8.085,8.085,0,0,0,0,8.511,48.248,48.248,0,0,0,20.544,15.555c1.908.734,5.576,1.614,6.9,0s-1.027-3.669-1.908-4.549c-4.549-4.256-8.511-6.6-13.207-10.566" transform="translate(345.487 354.441)" fill="#fff"/>
  <path id="Path_1094" data-name="Path 1094" d="M107.868,38.036A140.415,140.415,0,0,1,96.422,26.59H94.955c-.294,0-2.641,5.136-1.614,6.6,5.283,8.364,14.674,18.93,23.919,18.783,1.908,0,1.467-5.576,0-6.75a43.752,43.752,0,0,0-10.125-7.337" transform="translate(341.315 363.603)" fill="#fff"/>
  <path id="Path_1095" data-name="Path 1095" d="M112.358,44.881c-5.136-6.017-9.979-11.006-14.674-16.729-.881-1.174-3.522-1.908-4.256,0a5.7,5.7,0,0,0,0,5.723,77.939,77.939,0,0,0,20.691,20.4,2.91,2.91,0,0,0,3.375,0c3.375-2.788-2.2-5.43-4.549-8.218" transform="translate(335.506 368.938)" fill="#fff"/>
  <path id="Path_1096" data-name="Path 1096" d="M105.412,38.632c-3.375-3.815-7.044-7.19-9.538-10.712,0-1.027-3.962,0-3.522.88a88.965,88.965,0,0,0,18.93,23.479h3.228c.88,0,1.027-3.082,0-3.962-3.669-3.522-6.017-6.6-9.392-10.272" transform="translate(330.858 375.92)" fill="#fff"/>
  <path id="Path_1097" data-name="Path 1097" d="M107.393,24.116c-3.815,0-3.375-1.467-7.044-1.321s-3.962-.88-4.842.734-1.614,4.549-2.641,4.989,0,7.777,0,8.364A12.912,12.912,0,0,0,103.871,42.9c1.614,0,4.7,0,5.576-1.761s0-2.495-1.908-2.641c1.467-1.027,0-3.815,0-4.989s-5.283,0-7.631-2.788c3.815,0,7.924,0,10.125-2.495s-1.174-3.815-3.082-3.962" transform="translate(332.105 309.14)" fill="#fff"/>
  <path id="Path_1098" data-name="Path 1098" d="M111.207,43.977c2.2-.88,0-3.375,0-4.4s-5.87-1.027-8.8-2.641-2.788-1.027-3.669-2.2-2.348-1.467-1.467-1.321c4.549,0,9.538,4.549,13.794,1.321.881-.734,1.027-3.228,0-3.522a23.966,23.966,0,0,1-9.1-2.788,37.882,37.882,0,0,1-5.283-4.256c-1.174-1.174-3.375,0-3.082,1.027s-1.468,6.163-1.468,6.457v4.843c0,1.321,1.468,2.495,2.788,2.935s3.522,2.2,5.43,2.641,6.9,2.935,10.566,1.614" transform="translate(328.292 323.764)" fill="#fff"/>
  <path id="Path_1099" data-name="Path 1099" d="M110.8,34.571c-2.2-2.641-6.016-1.614-9.1-3.228a48.015,48.015,0,0,1-7.924-6.163c-1.614-1.467-2.348,2.495-1.321,3.815-2.2-2.935,15.555,8.511,16.142,8.8s3.375-1.908,2.2-3.228" transform="translate(326.347 339.92)" fill="#fff"/>
  <path id="Path_1100" data-name="Path 1100" d="M110.233,38.807c2.935-4.256-3.815-5.576-7.484-6.75s-6.163-4.549-9.245-6.9a6.314,6.314,0,0,1-1.614,1.174c3.228,2.641,0,4.256.88,6.017,3.228,5.136,14.674,10.712,17.463,6.457" transform="translate(325.011 344.048)" fill="#fff"/>
  <path id="Path_1101" data-name="Path 1101" d="M108.795,35.1c-.881-1.614-2.788-1.467-4.549-2.2a19.086,19.086,0,0,1-7.777-6.31c-1.468-1.908-5.136,0-4.843,0a24.639,24.639,0,0,0,17.609,11.593c1.761,0,0-2.2,0-3.228" transform="translate(321.166 352.01)" fill="#fff"/>
  <path id="Path_1102" data-name="Path 1102" d="M96.017,27.083c-2.348,1.908-3.375,0-4.109.88-3.669,6.457,7.924,13.941,12.62,14.674s4.109-2.348,3.228-4.7S98.952,24,96.017,26.5" transform="translate(315.601 357.534)" fill="#fff"/>
  <path id="Path_1103" data-name="Path 1103" d="M97.641,115.918a9.683,9.683,0,0,1-1.761,12.914v.88a63.28,63.28,0,0,0,16.435-11.3,42.321,42.321,0,0,0,6.6-7.777A99.2,99.2,0,0,0,128.31,93.32a23.436,23.436,0,0,0,1.761-7.337,13.663,13.663,0,0,1,2.2-6.6c6.016-7.337,12.767-11.886,15.555-21.131,3.815-13.207,7.778-34.045,0-46.078a10.023,10.023,0,0,0-2.935,3.522c-2.348,4.256-5.43,13.794-7.19,18.2A85.274,85.274,0,0,1,123.908,58.1a45.311,45.311,0,0,0-6.9,10.272c-7.484,15.848-13.5,31.55-19.517,47.545" transform="translate(379.572 166.418)" fill="#fff"/>
  <path id="Path_1104" data-name="Path 1104" d="M91.753,26.24c0,.734-1.908,1.467-1.614,2.2s0,6.163,2.348,6.31,1.761-10.859,2.2-6.017c0-1.761-2.2-1.467-2.935-2.495" transform="translate(300.641 358.817)" fill="#fff"/>
  <path id="Path_1105" data-name="Path 1105" d="M400.687,162.095a33.752,33.752,0,0,0,11.74,29.349,28.281,28.281,0,0,1,9.245,18.05,77.148,77.148,0,0,0,10.419,0c10.419,0,6.9,11.74-1.467,13.5,1.174,4.843-4.989,6.9-7.63,7.484,0,0,0,5.283-8.365,5.283,0,2.641-5.43,5.136-11.006,3.522,0,0-1.908,5.43-10.566,3.962a10.418,10.418,0,0,1-12.327-.88s-5.87,6.75-13.941-2.2-16.876-25.387-27.881-31.55L312.2,229.01a12.3,12.3,0,0,0-1.174-4.843l17.169-12.914a16.622,16.622,0,0,1-1.321-10.566,30.33,30.33,0,0,1,14.674,5.723c7.484-1.027,8.951-7.777,8.951-15.848,0-4.989,2.495-10.272,8.511-9.538a268.851,268.851,0,0,1-36.393-37.273L312.053,133.48a113.046,113.046,0,0,0-14.674-10.566,66.987,66.987,0,0,1,6.75,2.935l-6.163-6.163a2.511,2.511,0,0,1-3.346,1.13l-.176-.1c-.734,4.256-6.017,4.843-9.979,4.109a16.99,16.99,0,0,1-1.908,1.321,5.12,5.12,0,0,1-5.87-1.174c-.881-1.467,0-2.2,1.321-3.228m0,.88a1.333,1.333,0,0,0,1.467,0,9.466,9.466,0,0,0,2.348-3.082c0-.88,1.467.88,2.495,1.174a12.633,12.633,0,0,0,4.7,0,3.677,3.677,0,0,0,2.935-2.348V116.6a2.642,2.642,0,0,0,2.348,0c-3.669-3.669-6.6-6.9-8.658-9.392-11.886-13.794-40.061-18.93-64.421-17.756A48.72,48.72,0,0,0,180.13,116.6c0,1.027,2.054,3.228,1.467,4.7,9.392-16.729,29.349-29.349,70.437-24.8a29.6,29.6,0,0,1-2.495,6.9,25.677,25.677,0,0,1-5.576,31.55c-5.136,5.283-10.125,5.283-12.473,11.446a41.057,41.057,0,0,0-22.452-3.082c-.881,0-1.614,2.054-2.2,3.082a37.732,37.732,0,0,1,29.349,12.913A53.733,53.733,0,0,0,269.057,180s4.7,1.467,6.31,11.153a23.913,23.913,0,0,0,3.375,10.859,40.367,40.367,0,0,1-12.033,9.1c-8.511,0-9.538,0-14.674,5.283s-11.886,11.886-11.446,16a10.82,10.82,0,0,0,.88,3.375c-9.538,6.163-16.142,13.06-11.3,16.435s18.05,5.283,16.142,16a141.291,141.291,0,0,1-14.674,4.109,14.683,14.683,0,0,0-10.125-9.392c-4.7-1.614,1.761-9.979-7.631-19.664s4.7-13.794,14.674-17.022-2.2-12.913,27.881-18.93l-13.794-14.674c-35.512,7.484-20.691,21.131-41.969,30.376-11.3,4.843-6.6,18.783,3.522,26.707a16.877,16.877,0,0,1,5.87,16.142c0,2.495,9.538,2.2,9.979,8.511l-13.207,2.054c-2.2-8.658-9.979-8.364-10.712-11.739-2.495-11.3-10.419-16.729-11.152-20.544s1.761-4.989,1.908-19.957,7.924-8.658,10.419-18.783,11.153-20.691,32.871-25.68L215.5,164c-6.457,2.935-23.626,10.419-26.707,19.81s-17.022,4.7-13.794,35.072c-19.077-25.974-7.484-24.947-7.191-39.327s14.674-14.674,14.674-14.674a27,27,0,0,1-3.815-32.284,21.655,21.655,0,0,1,0-6.6L77.262,20.34c-2.2,13.207,1.761,23.186,0,38.3a122.006,122.006,0,0,0-2.495,42.409c9.245,54.736-19.077,39.914,24.36,126.493,12.18,24.213,16.142,12.327,38.887,46.811a60.445,60.445,0,0,0,61.046,22.012,54.736,54.736,0,0,0,46.665-7.631c-10.859,8.8-11.006,6.31-16.876,14.674-9.245,13.207-2.935,31.843-5.283,44.023,4.7-2.788,24.213-14.674,29.349-16.142,0,0,0-3.522.88-12.18A7.625,7.625,0,0,1,260.913,311a7.429,7.429,0,0,1,2.275.191c3.962,0,7.044,2.641,6.6,9.979s-3.228,36.686-3.228,36.686a41.006,41.006,0,0,1-15.555-1.614v2.495c0,4.109,15.7,5.283,20.251,3.228,0,0,1.174-13.794,1.174-17.609a24.943,24.943,0,0,0,13.354,12.18,33.464,33.464,0,0,1,18.05-13.794,29.4,29.4,0,0,1,0-4.256c0-12.914,19.81-25.534,21.718-33.017l5.136,6.9c-2.348,20.838-26.267,21.131-32.577,52.241a44.112,44.112,0,0,1,10.566,11.446c8.951-25.534,33.6-33.017,38.007-66.475A134.127,134.127,0,0,1,321.3,277.729c2.055,21.865,1.174,19.077-16,33.9,0-14.674,1.761-18.05,3.082-19.517a25.829,25.829,0,0,0,4.7-27.294c-3.522-6.6-6.457-13.06-8.8-18.49,7.484,6.9,25.093,40.648,41.675,55.322s50.04,6.457,66.475,10.859,73.372-17.9,84.084-57.524a158.826,158.826,0,0,1,23.479-46.078,92.978,92.978,0,0,0,10.419-46.224c1.321-80.709,14.674-57.524,15.995-111.672ZM188.054,270.1a107.429,107.429,0,0,1-25.24-22.892c-1.761-2.348-2.054-11.3-4.7-17.169,15.555,2.348,29.2,24.947,29.936,40.061M142.71,205.091a29.006,29.006,0,0,1,3.375,3.962,26.658,26.658,0,0,1,3.962,2.054s-2.054,0-2.054.88,3.228,3.375,2.788,4.843a34.655,34.655,0,0,0-3.815-3.375l-1.027,3.375a26.95,26.95,0,0,1-1.761-6.017,10.64,10.64,0,0,1-4.109-2.935h3.375Zm7.631-4.843a24,24,0,0,1-5.136-4.842h5.283l1.027-4.7,3.082,4.7a16.964,16.964,0,0,1,5.283,1.467,26.727,26.727,0,0,1-2.348,3.522l2.348,4.7-4.989-1.908c-.88,0-3.228,4.4-3.962,3.669a19.288,19.288,0,0,1-.587-6.6m1.908-21.571a14.8,14.8,0,0,1,4.256,3.669L157.972,180a14.759,14.759,0,0,1,0,4.4s2.054,3.522,1.614,3.669-2.641-3.228-2.641-3.228l-3.375-1.027,1.174-.88c-.88-1.614-2.495-4.256-2.495-4.256m6.017-9.245a12.283,12.283,0,0,1-2.495.88v4.549A52.257,52.257,0,0,1,146.379,164a11.5,11.5,0,0,0,6.016,1.761l2.055-2.935.88,4.109a12.923,12.923,0,0,1,5.723,1.761Zm.88-24.947a18.23,18.23,0,0,1,1.614,7.631,13.083,13.083,0,0,0-4.989-3.228l-5.136,4.4a36.858,36.858,0,0,1,1.321-7.484,25.254,25.254,0,0,1-4.843-4.256H152.1a25.971,25.971,0,0,0,.881-5.723,49.727,49.727,0,0,1,3.522,4.843h6.31c-.88,1.908-3.669,3.815-3.669,3.815M148.14,118.072l5.87-3.228-2.2,7.19a24.611,24.611,0,0,1,5.136,6.016,25.7,25.7,0,0,0-7.19-1.467,30,30,0,0,0-3.669,6.017l-.88-6.75-4.549-1.467a30.649,30.649,0,0,1,4.109-3.815l-.88-5.87a14.819,14.819,0,0,1,4.256,3.375m-9.832-23.919v7.777a35.2,35.2,0,0,1,5.43,6.017,10.85,10.85,0,0,0-3.375,0,9.176,9.176,0,0,1-3.228,0c-1.027,2.054-2.788,6.017-2.788,6.017l-1.908-6.31a37.483,37.483,0,0,1-5.136,0l3.962-5.576a28.3,28.3,0,0,0-1.908-6.163c1.174,0,5.429,2.641,5.429,2.641a17.842,17.842,0,0,1,3.228-4.7ZM135.96,203.477a13.79,13.79,0,0,0,1.174,2.935,7.069,7.069,0,0,1-3.375-1.908c-2.054-2.348-2.935-2.348-2.935-2.348a44.8,44.8,0,0,0-4.843,3.228A20.359,20.359,0,0,1,127.3,200.1l-5.43-3.669h5.87l1.027-5.576,2.641,5.43c6.016.88,6.75,1.614,6.75,1.614l-3.669,2.348a12.4,12.4,0,0,1,1.174,2.935ZM114.976,87.549a14.616,14.616,0,0,1,3.082-3.082,27.948,27.948,0,0,1,0-6.457c0-1.321.881,0,.881,0a48.2,48.2,0,0,1,3.522,4.4,50.249,50.249,0,0,1,6.6-.88,8.048,8.048,0,0,0-4.7,5.87,38.561,38.561,0,0,1,1.614,7.924,9.48,9.48,0,0,0-4.549-3.522l-3.669,6.75V91.8a6.451,6.451,0,0,1-5.43-1.027,13.185,13.185,0,0,0,2.348-3.522ZM102.062,85.2a31.782,31.782,0,0,1,2.054-7.044l2.495,7.044a8.788,8.788,0,0,1,5.136,2.2,10.112,10.112,0,0,0-3.669,4.256v5.87a10,10,0,0,1-4.109-3.815c-1.908,0-4.549,4.549-4.549,4.549a8.37,8.37,0,0,1,1.027-7.631c0-.88-4.989-4.989-4.843-6.457a45.868,45.868,0,0,1,6.163.734ZM91.056,132.746a40.481,40.481,0,0,1,0-8.218L86.214,116.9a43.032,43.032,0,0,1,6.163,2.641,26.949,26.949,0,0,1,0-7.044,80.78,80.78,0,0,0,2.788,9.245l5.723,3.669a6.029,6.029,0,0,0-3.815,1.321,54.165,54.165,0,0,1,1.174,7.337l-3.962-4.4c-1.027-.147-3.228,3.082-3.228,3.082m8.511,20.838c0-.88-1.908-1.467-1.908-1.467-3.375,0-3.962-1.174-3.962-1.174l6.016-1.908v-4.7a48.56,48.56,0,0,1,3.815,5.576,36.971,36.971,0,0,1,4.989,3.669c1.321,1.027,0,1.614,0,1.614a3.682,3.682,0,0,0-3.375,1.467,33.841,33.841,0,0,1,.88,4.843,10.534,10.534,0,0,1-4.109-3.228c-1.321,0-3.228,5.283-3.228,5.283a77.346,77.346,0,0,1,.88-10.419ZM114.242,186.6a18.516,18.516,0,0,1-2.495,5.576l-2.641-9.392-6.6-1.174a22.388,22.388,0,0,1,5.283-4.4v-6.9l4.256,5.723c1.761,0,2.788-2.641,5.43-1.614a20.962,20.962,0,0,0-1.761,6.6,28.26,28.26,0,0,1,4.4,7.19,36.149,36.149,0,0,1-5.87-2.054Zm27.294,69.85a329.011,329.011,0,0,1-21.425-34.338,58.644,58.644,0,0,1,18.343,4.4,171.648,171.648,0,0,1,13.354,23.626c10.712,35.365,35.659,20.544,40.648,31.7-14.968,6.75-34.045,5.43-50.92-25.827ZM302.955,227.1c-3.228,3.962-8.071,1.467-7.337-2.054,2.348,1.467,5.576-1.027,5.576-4.989a4.248,4.248,0,0,1,2.054,5.65,4.367,4.367,0,0,1-.734,1.1Zm-48.866,0a93.723,93.723,0,0,1,9.1-8.8c2.055-1.467,6.31,0,9.832-1.761a78.051,78.051,0,0,0,19.811-14.674l1.908,4.843,7.631-.734v4.989c-3.962,2.641-12.914,8.218-12.767,10.272a62.93,62.93,0,0,1,0,14.674c-1.027,3.375-4.549,3.082-7.19,3.522a8.935,8.935,0,0,0,2.348-7.484c0-2.788-3.522-8.658-6.75-4.989s-7.484,10.712-2.935,12.326c-4.549,2.054-7.337,0-7.337-4.255a31.62,31.62,0,0,1,2.788-7.924c.881-2.495-3.082-2.641-5.723-1.027s-7.484,7.044-6.75,9.245a3.361,3.361,0,0,0,2.788,2.348c-3.522,1.761-8.218.734-8.658-3.815s-1.321-3.962,1.468-6.6Zm35.365,16.289c-1.908,8.951-8.364,2.054-12.767,4.989,1.467-8.8,8.658-3.522,12.327-4.843Zm-16.582,9.245c-3.228,1.908-7.337-1.614-4.549-6.016a4.4,4.4,0,0,1,7.19-1.027c-4.109,1.614-5.43,5.576-3.082,7.19Zm-7.337-2.495c-3.082,1.908-7.19-1.614-4.4-6.017a4.4,4.4,0,0,1,6.1-1.233,4.478,4.478,0,0,1,1.233,1.233c-3.815.294-4.989,4.109-2.935,6.017m-10.859-3.082c1.467-.88,0,7.044,9.685,8.071,1.321,0,2.495,0,2.495,1.467s-2.641,3.082-3.082,7.924a50.971,50.971,0,0,1-7.19,2.935c2.495-3.815,5.43-10.125-4.843-15.555-3.815-1.761-2.495-1.761,2.935-5.136Zm14.674,41.382c1.761,8.951-6.9,4.549-9.832,8.658-1.321-9.245,7.484-6.6,10.419-8.951Zm-29.349,0a31.121,31.121,0,0,1-26.707,2.641,252.287,252.287,0,0,0,45.637-17.9s1.761,5.43-18.343,14.528Zm23.626,23.186a42.784,42.784,0,1,0,.587-.734Zm-2.2-22.745c-1.321-9.1,7.337-6.016,10.419-8.218,1.761,8.364-6.31,3.375-9.832,7.484Zm1.614-8.364c0-9.1,7.777-5.576,11.006-7.484,1.027,8.364-6.9,2.935-10.419,6.457Zm2.935-8.071c0-9.1,8.218-4.989,11.593-6.9.293,8.364-7.19,2.495-11.006,6.163Zm2.935-7.777c0-9.1,8.364-4.7,11.886-6.31-.587,8.364-7.337,2.2-11.3,5.576Zm3.669-7.778c1.174-9.1,9.1-4.4,12.62-6.016a20.211,20.211,0,0,1,4.843-3.228c0,1.761,3.375,3.082,3.375,3.082-1.321,2.935-6.9,3.228-8.218,6.75a9.7,9.7,0,0,1-1.174-3.522c-1.908,3.375-7.337-.587-10.859,2.2Zm14.674,23.773c-3.669-8.511,6.016-7.777,8.658-10.712,4.109,7.924-5.723,5.283-7.924,9.538Zm12.18,6.31a4.8,4.8,0,1,1,.734-.734ZM286.96,272.3c-4.109-8.364,5.723-8.071,8.218-11.153,4.549,8.218-5.43,6.163-7.484,11.006Zm0-7.484c-4.549-8.071,5.283-8.218,7.631-11.446,4.255,7.924-5.87,6.31-7.631,11.446m13.5,76.16a42.486,42.486,0,0,1-14.674,0v-37.42c0-8.071,7.778-8.8,8.8-8.658,3.962,0,7.19,2.054,7.337,9.392s-1.468,36.393-1.468,36.393Zm-5.576-93.329c-4.109-2.935-1.761-7.631,1.908-7.19-1.467,2.348,1.174,5.43,5.283,5.283a4.405,4.405,0,0,1-7.19,1.908m6.457-5.43c-5.283,0-5.43-5.87-2.054-7.19,0,2.788,3.815,4.109,7.19,2.2.44,2.348-1.467,5.43-5.43,4.989Zm2.788-7.484c-4.842,1.908-7.777-2.495-5.429-5.283,1.321,2.348,5.429,1.761,7.337-1.761a4.253,4.253,0,0,1-2.2,7.777ZM513.68,119.246l-4.256-4.843-4.4,4.256,1.908-5.723-3.082-1.467L507.956,110l2.055-4.256v2.788l5.723-1.321-4.989,4.109Zm-2.348,8.951-3.962,1.174-5.283,5.283,1.321-5.283h-3.228l4.843-3.669,1.908-5.723,1.027,4.4,5.43-2.348-3.962,3.228Zm-2.495,22.012-4.549,1.027-1.321,5.283a11.534,11.534,0,0,1-2.055-5.283l-4.7,2.2,4.109-6.017,5.429-6.75v5.87Zm-18.93,32.724-5.136-2.2L481.1,186.6v-6.9l-3.815-.734,5.43-3.082,2.641-7.19,1.908,5.283,4.7-2.2L488,177.21ZM454.4,229.157l-3.962-2.348-5.136,4.256,2.054-5.723-3.522-2.054,5.723-1.908,3.375-4.549v3.962l5.576-.88-6.017,3.522Zm16.582-30.229-5.576,4.109v6.016l-2.641-5.283-6.457,2.348,3.962-4.843,4.109-5.43v4.109Zm-4.549-6.6,2.2-4.109,1.027-3.669,2.054,1.467,1.908-.734-2.641,6.163Zm-9.538,6.31-3.082,6.016v-4.4l-4.7-1.614,4.256-2.2,1.614-4.109,2.495,5.136h3.375Zm5.723,29.349-3.375-3.815H465.4l4.109-5.87a7.16,7.16,0,0,1,.88,5.576l6.163-.734-6.9,4.989v7.484l-3.815-3.669-6.75,4.549a40.684,40.684,0,0,1,3.375-8.951Zm12.473-54.149-3.962,1.027,3.228-2.788-1.321-2.935h2.788l4.4-3.815a19.839,19.839,0,0,0-1.174,4.7,12.367,12.367,0,0,1,3.522,2.2s-4.549,0-4.843.734-.88,4.989-.88,4.989Zm5.43-14.674h3.228l3.962-3.815-1.174,4.7,3.522,2.2-4.4-.147a12.733,12.733,0,0,0-1.027,4.843l-1.614-3.962L478.9,164l3.228-2.788Zm11.3-13.06-2.2,7.19-1.174-7.19-4.7,1.614,6.31-5.723,1.321-4.7,1.027,3.962,5.283-1.467-3.228,2.2,2.348,3.669Zm0,22.892,3.669,1.027L498.565,164v6.6h5.43l-6.457,3.962-1.027,6.457-2.2-4.4-3.375,1.027,2.641-4.256ZM502.82,94.3l2.2-4.109,2.495,2.641,6.31-1.908-3.962,4.4,3.228,4.256-7.044-1.027-3.962,4.843V98.555l-6.163.734ZM494.6,113.376v-5.43l2.788,3.522,3.669-3.228-1.614,4.109h1.761l-6.457,5.43v-2.2h-3.375Zm4.109,2.788-4.109,5.87h6.016l-7.19,3.375-3.082,7.19V127.61l-4.7,1.908a21,21,0,0,0,4.989-4.109c2.495-3.082,8.511-10.125,8.511-10.125Zm-19.223-4.4,1.174-4.7,2.495,1.908,4.7-1.467-2.935,4.989,2.348,6.31-5.723-1.908-3.522,5.576,1.174-4.256-5.136-2.788Zm-4.843,20.984V127.9l1.467,1.908,4.549-1.027-2.788,3.962-.88,2.054-5.429,3.522.88-2.054h-2.788Zm-5.43,14.674a40.072,40.072,0,0,1,6.017-7.337v4.256h4.549l-4.989,3.669v4.843l-3.082-2.054-4.7,2.2Zm1.174,14.674-6.163,4.549v6.6l-3.815-3.815-7.19,4.4,4.4-8.071a7.682,7.682,0,0,0-3.669-1.614,16.1,16.1,0,0,1,6.31-1.321l3.082-6.163v6.017Zm-17.756-29.349,1.467-6.31,2.2,4.109,5.87-2.935-3.228,7.631,2.2,4.109-6.31,1.321-3.082,6.6v-8.218l-4.7-1.761Zm-8.658,25.974,1.321-5.283,2.935,2.054,5.87-2.348-3.962,5.283,3.375,3.228-7.337,1.174-3.669,7.19,1.614-7.924H437.96ZM419.03,174.128v-7.777l-6.75-2.495,8.071-3.375,2.495-5.576,3.375,3.669,6.163-.734-4.109,5.43,3.669,4.843H424.9Zm7.924,17.316,6.017-4.109,2.2-7.337v4.989l3.669-2.788-3.082,5.576,2.641,4.7c-1.467-1.321-5.283-.734-5.283-.734l-3.082,5.576.88-5.87Zm9.979,11.153-5.283,5.723s3.375-3.815,3.522-5.43-.881-1.761-.881-1.761l3.962-4.4a18.438,18.438,0,0,0,7.044-2.348c0,1.614-6.31,5.136-6.31,5.136l3.962,2.788a18.073,18.073,0,0,1-6.75.587Zm-3.815,35.659,3.082-6.163-1.174,5.283,4.989-1.467s-6.6,4.549-7.484,7.044l-4.256,2.2,2.2-3.522h-3.962Zm-17.463,7.484h5.43l-4.109,1.614-1.027,3.669-1.174-2.935h-2.641Zm-9.1,11.74,6.457-2.788c-1.761,1.321,0,3.669,0,3.669l-4.109,1.174-4.843,3.522v-2.788l-3.082-.88Zm-65.595,0c-4.549,6.31,1.761,10.712,0,17.9v.88a48.5,48.5,0,0,1-11.446-8.658c-6.457-19.957,8.071-14.674,7.778-21.131s6.31-4.7,7.777-7.777-13.06-11.886-12.767-13.354a73.232,73.232,0,0,1,11.3-9.1,77.494,77.494,0,0,1,16,21.571c.881,4.256-4.989,0-6.457,6.9-4.109,13.5-8.511,6.75-12.914,12.913Zm19.81,20.251c0,4.109,13.5,7.777-1.174,11.593,0,0-7.484-4.255-8.218-6.31s-4.7-13.06,2.642-16.876c14.674-8.071,3.962-10.125,16.582-16.729a21.533,21.533,0,0,1,10.419,7.484,14.679,14.679,0,0,0-7.777,8.364c-2.495,5.723-13.207.293-13.207,12.62Zm33.9,10.419c2.348,1.174,0,5.87-1.761,8.511a63.892,63.892,0,0,1-14.675-3.522s4.7-4.7,2.935-5.576-11.006-4.843,3.228-14.674,23.186,7.484,35.806-17.169a27.96,27.96,0,0,1,14.674-8.071c-.88,9.832-4.843,21.718-29.349,25.974-14.527,2.788-13.941,13.5-11.593,14.674Zm21.131,9.538c2.641-6.017-13.354-5.136-6.457-15.555s27.588-7.924,31.7-14.674,2.788-11.886,10.125-23.186a19.547,19.547,0,0,1,12.473,1.467c-11.3,11.593-1.761,19.37-10.272,22.305S425.927,281.1,434,288.882s-21.718,14.821-18.93,8.951Zm61.633-21.425c0,5.576-22.305,18.343-25.68,14.674s1.174-3.669,3.522-14.674c1.908-8.071,14.674-3.375,19.37-25.093a80.66,80.66,0,0,1,11.3,0c-.293,14.528-8.658,12.767-9.245,25.24Zm6.75-68.676-6.017,3.522,3.228-7.777-3.815-4.256h5.87l5.283-5.723v5.87l5.87,1.321-5.576,4.109v6.6a20.487,20.487,0,0,0-5.576-3.522Zm19.517,13.5a14.684,14.684,0,0,0-.88,9.685l-5.283-5.576-6.9,2.788,4.7-5.87-3.815-5.43h7.924l4.989-8.071-1.027,6.9,6.457.88Zm12.62-27.588c-2.348.734-6.457-4.7-6.457-4.7l-7.337,5.43,3.669-7.044-5.723-2.495,7.484-2.2,2.641-7.19,1.908,6.163h6.75l-5.576,4.256Zm2.935-36.686-1.027,4.256-2.495-1.908-6.163,3.962,3.669-6.017-4.843-1.174,6.9-1.761,4.109-6.457v5.87h4.4Zm0-22.892v4.989A20.508,20.508,0,0,1,513.973,137l-4.989,3.815,2.641-6.75-4.7-1.761,6.9-1.761,4.989-4.256v3.375l6.163-.88ZM529.675,103.4a4.545,4.545,0,0,1-2.788,3.962v-2.788l-4.7-1.761,4.549-.88,1.174-4.256c1.614,3.522,3.228,0,3.228,0a22.649,22.649,0,0,0-1.468,5.723m1.174-20.544-6.163,8.364,1.761-8.364-6.163.734,7.777-3.815,2.2-8.364,2.055,5.723,3.375-.734-1.027,3.228,5.87,1.321Z" transform="translate(79.607 278.138)" fill="#fff"/>
  <path id="Path_1106" data-name="Path 1106" d="M111.51,16.165a5.43,5.43,0,0,0-1.071-7.6,5.251,5.251,0,0,0-1.864-.91,11.055,11.055,0,0,0-3.082-1.174c-1.027,0-1.614,1.321-2.055,2.2L98.89,17.926a33.11,33.11,0,0,0,3.228,1.614,6.173,6.173,0,0,0,8.57-1.614,6.032,6.032,0,0,0,.822-1.761" transform="translate(420.731 88.61)" fill="#fff"/>
  <path id="Path_1107" data-name="Path 1107" d="M100.068,18.586c-1.761-5.576-5.723-14.674-12.62-13.06S82.9,18,84.807,23.869A33.075,33.075,0,0,0,89.8,33.7a6.884,6.884,0,0,0,8.218,2.641c5.136-1.614,4.256-7.631,3.375-12.327a38.529,38.529,0,0,0-1.321-5.43" transform="translate(201.051 72.982)" fill="#fff"/>
  <path id="Path_1108" data-name="Path 1108" d="M102.081,57.33l7.484-4.256-9.685-8.8Z" transform="translate(434.269 605.366)" fill="#fff"/>
  <path id="Path_1109" data-name="Path 1109" d="M111.1,59.623c-1.467-5.723-4.989-15.555-11.886-13.647S94.082,58.008,95.7,64.025a35.136,35.136,0,0,0,4.4,10.125,7.048,7.048,0,0,0,8.071,3.082c5.283-1.321,4.549-7.484,4.109-12.18-.294-1.761-.734-3.669-1.174-5.43" transform="translate(357.009 625.379)" fill="#fff"/>
  <path id="Path_1110" data-name="Path 1110" d="M71.576,40.159l23.919-1.174h3.228a5,5,0,0,0,0-2.788c0-7.337-4.7-8.8-12.033-9.245a30.589,30.589,0,0,0-3.669,0,43.526,43.526,0,0,0-5.87,0c-6.31,1.321-9.538,3.815-9.245,9.979a4.483,4.483,0,0,0,.88,2.935s2.2.293,2.788.293" transform="translate(-3.193 367.203)" fill="#fff"/>
  <path id="Path_1111" data-name="Path 1111" d="M108.444,21.1,111.672,8.33,100.96,16.107Z" transform="translate(449.037 113.908)" fill="#fff"/>
  <path id="Path_1112" data-name="Path 1112" d="M78.541,68.2c5.576,4.109,9.392,1.614,14.674-3.815a14.344,14.344,0,0,0,2.2-2.935,56.647,56.647,0,0,0,3.228-4.843c3.082-5.723,3.228-9.832-1.467-13.207a3.986,3.986,0,0,0-2.788-1.027,13.369,13.369,0,0,0-1.468,1.467L78.247,63.209a6.188,6.188,0,0,0-1.467,2.935A3.4,3.4,0,0,0,78.541,68.2" transform="translate(118.39 579.384)" fill="#fff"/>
  <path id="Path_1113" data-name="Path 1113" d="M71,20.914a11.989,11.989,0,0,0-1.174,3.228,3.943,3.943,0,0,0,2.348,1.908l9.245,4.4a23.713,23.713,0,0,0,1.467-3.375,6.012,6.012,0,0,0-1.555-8.364,6.085,6.085,0,0,0-1.966-.88,5.433,5.433,0,0,0-7.557,1.335A5.565,5.565,0,0,0,71,20.914" transform="translate(23.353 230.459)" fill="#fff"/>
  <path id="Path_1114" data-name="Path 1114" d="M83.94,56.909l8.218,2.2-.734-13.06Z" transform="translate(216.298 629.707)" fill="#fff"/>
  <path id="Path_1115" data-name="Path 1115" d="M82.5,20.1l-13.207.587,10.566,8.071Z" transform="translate(15.968 274.856)" fill="#fff"/>
  <path id="Path_1116" data-name="Path 1116" d="M68.694,30.682a3.847,3.847,0,0,0,2.495,1.027L83.075,34.2a17.668,17.668,0,0,0,0-2.495c1.174-5.43,0-8.364-6.163-9.685s-7.484,0-8.511,5.283a6.611,6.611,0,0,0,.294,3.375" transform="translate(2.478 294.65)" fill="#fff"/>
  <path id="Path_1117" data-name="Path 1117" d="M115.789,40.836c-3.815-3.082-6.31-2.348-8.658,0a7.656,7.656,0,0,0-1.761,2.641c0,1.027,1.027,1.908,1.614,2.495l8.071,6.6a12.792,12.792,0,0,0,2.054-2.788c2.641-2.641,2.935-5.576-1.321-8.951" transform="translate(509.342 530.439)" fill="#fff"/>
  <path id="Path_1118" data-name="Path 1118" d="M112.081,29.795l11.006-7.337L109.88,20.99Z" transform="translate(571.013 287.026)" fill="#fff"/>
  <path id="Path_1119" data-name="Path 1119" d="M121.43,25.37H111.011a30.6,30.6,0,0,0,0,3.669c0,4.4,1.908,6.75,7.337,6.6s6.163-2.348,6.017-6.457a11.9,11.9,0,0,0,0-3.228c-.587-.587-1.908-.587-2.935-.587" transform="translate(585.73 346.92)" fill="#fff"/>
  <path id="Path_1120" data-name="Path 1120" d="M118.435,43.511l3.375-7.924L108.75,34.56Z" transform="translate(555.561 472.588)" fill="#fff"/>
  <path id="Path_1121" data-name="Path 1121" d="M450.885,0C236.932,0,63.48,173.452,63.48,387.4s173.452,387.4,387.4,387.4,387.4-173.452,387.4-387.4C838.2,173.481,664.808.088,450.885,0M820.974,409.71A75.549,75.549,0,0,1,806.3,424.384a84.377,84.377,0,0,0-12.18,11.153,18.354,18.354,0,0,1,0-22.892,80.765,80.765,0,0,1,14.674-14.674,85.046,85.046,0,0,0,12.033-11.74,19.08,19.08,0,0,1,.147,23.479m0-36.98a73.313,73.313,0,0,1-13.941,16.582,70.8,70.8,0,0,0-10.859,12.18,18.35,18.35,0,0,1-2.2-22.745,87.733,87.733,0,0,1,13.354-16.435A72.612,72.612,0,0,0,818.185,349.4a19.51,19.51,0,0,1,3.228,23.332Zm-3.229-36.98a72.206,72.206,0,0,1-12.327,18.05,77.77,77.77,0,0,0-9.538,13.06,18.345,18.345,0,0,1-4.4-22.452A84.607,84.607,0,0,1,803.071,326.8a72.8,72.8,0,0,0,9.538-13.941,19.509,19.509,0,0,1,5.576,22.892Zm-6.9-36.393a79.517,79.517,0,0,1-10.419,19.077,70.26,70.26,0,0,0-8.218,14.674,18.489,18.489,0,0,1-6.6-22.012,76.53,76.53,0,0,1,9.832-18.637,75.561,75.561,0,0,0,8.071-14.674,19.656,19.656,0,0,1,7.777,21.571Zm-10.125-35.219a76.938,76.938,0,0,1-8.365,19.957,81.1,81.1,0,0,0-6.9,14.674,18.488,18.488,0,0,1-8.8-21.131,85.732,85.732,0,0,1,8.071-19.664,80.321,80.321,0,0,0,6.6-15.408,19.355,19.355,0,0,1,9.392,21.571m-25.24,161.419v1.908H762.276v-2.348c5.576-1.174,11.3-4.549,11.886-10.125a5.73,5.73,0,0,0-4.681-6.6h-.015c-3.669,0-4.843,2.641-5.723,5.136l-.88,2.788c-2.054,6.31-4.7,12.18-13.354,11.446a11.3,11.3,0,0,1-10.7-11.872q.044-.594.132-1.189a13.329,13.329,0,0,1,4.109-8.658l-2.788-3.082v-1.908l14.674.88v2.2c-5.87,1.321-12.327,4.989-12.767,11.006a5.709,5.709,0,0,0,4.387,6.794,4.3,4.3,0,0,0,.6.1c3.375,0,4.843-1.614,5.723-4.256l1.027-3.228a18.96,18.96,0,0,1,4.4-8.511,10.566,10.566,0,0,1,8.511-3.082,10.878,10.878,0,0,1,10.419,12.914,13.371,13.371,0,0,1-3.375,7.631Zm-24.946,84.084H744.52l-4.256,9.832a17.841,17.841,0,0,0,3.962,3.228c2.641,1.027,4.109,0,4.843-2.641l2.495,1.027-4.842,11.3-2.495-1.027c1.027-3.375-2.054-6.163-4.549-8.658l-20.544-19.223,1.174-2.935,32.284,2.054c2.935,0,3.815,0,5.136-2.348l2.348,1.027-5.87,13.647-2.348-1.027s1.027-2.2,0-2.935-1.027-1.908-1.761-2.054Zm-33.751,59.578-20.1-13.647a12.235,12.235,0,0,0-1.467,0h-1.467a8.128,8.128,0,0,0-1.321,1.761l-.88,1.174-2.2-1.614,9.392-13.647,2.055,1.467v1.174s-1.321,1.614-.881,2.641a4.514,4.514,0,0,0,1.321,1.027l20.691,14.674s1.615,1.027,2.348,0l1.32-1.614v-.88l2.055,1.467L718.4,577l-2.2-1.467,1.614-2.348c1.321-2.348.147-2.788-1.027-3.962m-17.463,23.332,1.321,1.027H702.7l1.467-1.614,2.054,1.614-10.566,12.914L693.6,604.88a16.885,16.885,0,0,0,1.467-1.908c1.321-1.614,0-2.054-.88-3.522l-18.049-14.674s-2.495-2.348-3.228-2.348-1.614,1.027-2.348,1.761v1.174l-2.2-1.761,10.712-13.06,2.054-2.348a11.263,11.263,0,0,1,6.017-4.256,9.071,9.071,0,0,1,7.191,2.054,8.812,8.812,0,0,1,1.673,12.341l-.352.426a8.513,8.513,0,0,1,9.832,0l2.935,1.467,3.082,1.321h.734c2.055-1.027-.88-3.815-2.054-4.989l1.32-1.614L713.7,577a6.743,6.743,0,0,1,0,9.392,6.449,6.449,0,0,1-4.842,2.348,9.414,9.414,0,0,1-5.136-2.2l-2.348-1.761c-3.375-2.348-5.87-4.109-8.658-1.174l-1.321,1.467-.88,1.027Zm-29.349,33.164a5.684,5.684,0,0,0-1.174-1.467l-17.756-18.343h-.88a1.2,1.2,0,0,0-1.174,0,14.247,14.247,0,0,0-2.788,2.348l-1.761-1.908,20.4-19.957,9.245,9.1-1.468,1.467c-6.31-3.962-10.125-4.7-14.674,0a5.562,5.562,0,0,0-1.761,2.348,3.983,3.983,0,0,0,0,1.321,18.321,18.321,0,0,0,1.908,1.027l6.6,6.75c3.375-2.788,2.788-6.163,0-9.832l1.614-1.614,12.327,12.473-1.761,1.614a6.583,6.583,0,0,0-10.125-.734l7.631,7.777c1.614,1.614,2.2,2.348,3.962,1.174l1.761-1.467c4.843-4.7,3.962-8.951,0-15.408l1.761-1.321,8.951,9.832L669.68,631l-1.908-1.761c.734-.587,3.228-2.054,2.2-3.522m-19.224,16a2.25,2.25,0,0,0,0-1.321L634.462,618.38l11.886,31.99-1.614,1.321L616.852,631l13.354,18.049c2.495,3.375,4.7,5.723,8.071,3.082l1.614,2.054-9.685,7.19-1.468-1.027c3.082-2.2,2.2-4.4,0-7.777l-12.62-17.022s-1.321-1.908-2.2-1.908a5.946,5.946,0,0,0-2.495,1.321h-.88l-1.614-2.054,11.006-8.218,18.343,13.647-7.924-22.012,11.006-8.071,1.614,2.054-1.027.88a2.006,2.006,0,0,0-1.761,2.2,15.037,15.037,0,0,0,2.054,3.082l14.675,19.37c1.174,1.027,2.495,0,3.375,0h.881l1.467,2.054-12.913,9.685-1.614-2.055,2.054-1.467v-.88a1.181,1.181,0,0,0,.587-1.467M614.064,664.6l-4.4-3.962-9.392,5.283a20.246,20.246,0,0,0,1.174,4.989,3.664,3.664,0,0,0,5.063,1.145,2.108,2.108,0,0,0,.367-.264l1.467,2.2-10.712,6.016-1.321-2.348c2.788-1.908,2.054-6.163,1.467-9.538l-4.549-27.881,2.788-1.614,24.36,21.718c2.348,2.054,3.082,2.495,5.576,1.321l1.321,2.2-13.06,7.337-1.321-2.2s2.2-1.174,2.348-2.054a2.67,2.67,0,0,0-1.174-2.348m-64.127,2.641,3.375,9.685c4.549-1.321,5.136-3.962,4.4-8.951l2.2-.734,5.723,16.435h-2.2a8.886,8.886,0,0,0-1.908-3.228,5.591,5.591,0,0,0-6.9-1.908l3.522,10.419c1.027,2.495,1.174,3.082,3.669,2.348l2.641-.734.88,2.495-17.169,6.017-.881-2.495,2.641-.88a3.934,3.934,0,0,0,1.174,0,10.458,10.458,0,0,0,0-2.348l-8.071-23.332c0-.88,0-1.908-1.761-1.908a7.123,7.123,0,0,0-2.495,0H537.61l-.88-2.495,28.175-9.685,4.549,12.327-2.054.734c-3.669-5.87-7.337-8.511-13.647-6.457a5.639,5.639,0,0,0-3.228,1.908c-1.174,1.027-.734,1.908-.44,2.788Zm-11.446,29.349a16,16,0,0,1-21.615,6.677,15.426,15.426,0,0,1-1.57-.954,20.551,20.551,0,0,1-6.75-25.974,16.677,16.677,0,0,1,10.125-8.071,14.635,14.635,0,0,1,13.207,2.054,20.738,20.738,0,0,1,8.218,11.593,21.012,21.012,0,0,1-1.468,15.261Zm-88.047-34.778c-152.2.25-275.776-122.942-276.026-275.145S297.361,110.895,449.564,110.645,725.355,233.587,725.59,385.79v1.174C725.5,539.05,602.237,662.315,450.151,662.4ZM470.7,699.529h-3.082a16.134,16.134,0,0,1-8.658-3.228,11.059,11.059,0,0,1-3.962-8.071,10.4,10.4,0,0,1,8.834-11.784,10.085,10.085,0,0,1,1.878-.1,11.766,11.766,0,0,1,7.631,2.348l2.054-2.641H477.3l1.174,13.06h-2.2c-1.761-5.283-5.723-10.712-11.006-10.419a5.428,5.428,0,0,0-5.576,5.283v.293c0,3.522,3.082,4.4,5.43,4.843l2.2.587c6.163,1.174,12.033,2.935,12.473,11.74a12.441,12.441,0,0,1-3.228,9.1,11.766,11.766,0,0,1-7.631,3.082,12,12,0,0,1-8.658-2.935l-2.495,3.082h-1.907l-.881-14.674h2.054c1.908,5.723,6.31,11.593,11.886,11.3a5.58,5.58,0,0,0,5.885-5.253,6.633,6.633,0,0,0-.015-.763,4.832,4.832,0,0,0-4.4-4.256Zm-30.523-14.674h2.2v17.463h-2.348c0-4.7-2.055-7.924-6.31-7.924v10.859c0,2.2,0,3.228,1.761,3.669h2.348c6.6,0,9.245-3.082,11.446-10.272h2.054L450.151,712,420.8,710.389v-2.641c1.174,0,3.962,0,4.549-1.027a7.071,7.071,0,0,0,0-1.761l1.321-25.534v-1.174a1.027,1.027,0,0,0-.88-.88,14.15,14.15,0,0,0-3.522,0v-2.788l29.349,1.614v12.913h-2.2c-1.467-7.337-3.375-10.565-10.272-10.859a5,5,0,0,0-2.935,0s-.734,0-.734,1.027a4.793,4.793,0,0,0,0,2.495v9.392c1.467,2.348,3.669-.44,4.4-4.989Zm-37.86,20.691h3.228v2.641l-16.876-2.935v-2.641a16.591,16.591,0,0,0,3.815,0,1.345,1.345,0,0,0,1.027-.734,4.644,4.644,0,0,0,0-1.908l4.256-24.359a11.035,11.035,0,0,0,0-2.2,1.227,1.227,0,0,0-1.174-1.174c-4.843-.734-7.924,5.43-9.1,9.832h-2.054l2.935-13.207,27.735,4.843-1.761,13.5h-2.054c0-4.7,0-11.446-5.43-12.18h-1.467a11.044,11.044,0,0,0,0,2.2l-4.4,27.148c-.44,1.467-.44,1.908,1.027,2.495Zm-29.349-8.8v-6.016L361.811,689.7a16.572,16.572,0,0,0-2.641,4.4c0,2.788,1.321,3.962,3.228,4.4v2.641l-11.739-3.228v-2.641c3.375,0,5.87-2.935,7.777-5.723l16.289-23.039h3.082l2.348,32.284c0,2.935,0,3.815,3.082,4.7v2.641l-14.674-3.962v-2.641s2.348.88,3.082,0,.88-.734.88-1.467Zm-30.376-6.6,3.082,1.174-1.027,2.495L328.206,689.7l.881-2.348,3.669,1.027a1.79,1.79,0,0,0,1.174,0,3.264,3.264,0,0,0,0-1.761l8.951-23.039a17.123,17.123,0,0,1,.734-2.054s0-1.174-1.027-1.321c-4.549-1.761-8.8,3.815-10.859,7.777l-1.908-.734,5.43-12.473,26.267,9.979-4.256,12.914h-2.054c1.174-4.549,1.614-11.3-2.788-13.06h-1.614a8.764,8.764,0,0,0-.88,2.054l-9.1,23.626c.147-.587,0,.294,1.321,1.174Zm-23.039-44.023a5.129,5.129,0,0,0-7.117,1.423,3.916,3.916,0,0,0-.367.631c-1.761,3.082,0,5.283,2.2,6.9l2.2,1.761c4.843,4.109,8.951,8.658,4.989,16.435a11.749,11.749,0,0,1-7.19,6.31,11.289,11.289,0,0,1-8.364-.147,12.12,12.12,0,0,1-6.016-6.9L296.07,674h-1.614l6.016-12.767,1.908.88c-1.027,5.87,0,13.207,4.842,15.7a5.568,5.568,0,0,0,7.719-1.6,4.946,4.946,0,0,0,.352-.6,4.855,4.855,0,0,0-1.6-6.662l-.161-.088-2.348-2.054a16.625,16.625,0,0,1-5.87-7.19,11.3,11.3,0,0,1,0-8.951,10.571,10.571,0,0,1,13.794-5.738,12.523,12.523,0,0,1,1.467.748,11.166,11.166,0,0,1,5.283,5.723l3.228-1.027,1.614.88-5.576,11.886-1.761-1.027A12.923,12.923,0,0,0,319.108,647Zm-110.792-47.4a30.42,30.42,0,0,0,2.054,2.495l-2.054,1.761L197.6,589.912,199.659,588l2.641,2.788a1.021,1.021,0,0,0,1.321,0l1.614-1.174,18.783-16,1.761-1.321a1.306,1.306,0,0,0,0-1.761c-3.082-3.669-9.538-.88-13.207,1.614l-1.321-1.614,10.859-8.218L240.16,583.9l-9.979,9.1-1.321-1.614c3.082-3.375,6.9-9.1,3.669-12.767,0,0-1.027-.881-1.614,0a6.988,6.988,0,0,0-1.614,1.321l-19.37,16.289c-2.2,1.614-2.495,1.908-1.614,3.375Zm12.033,13.647c1.027.734,2.641,3.082,4.109,2.054l1.321-1.174,17.316-18.783v-.88a.893.893,0,0,0,0-1.174,14.676,14.676,0,0,0-2.495-2.641l1.908-1.908,20.838,19.517-8.511,9.685-1.614-1.467c3.669-6.457,4.256-10.272,0-14.674a7.655,7.655,0,0,0-2.641-1.761,1.62,1.62,0,0,0-1.174,0,10.945,10.945,0,0,0-2.641,2.495l-6.457,6.9c2.788,3.082,6.31,2.495,9.685-.734l1.614,1.614L240.307,622.2l-1.614-1.467c3.082-3.669,3.375-7.484,0-10.272l-7.484,8.071c-1.614,1.614-2.348,2.348-1.027,3.962L231.8,624.1c4.843,4.549,9.1,3.669,15.408,0l1.321,1.614-9.392,9.392L218,615.3ZM248.671,637.9l2.935,1.908a5.031,5.031,0,0,0,1.174-1.321L267.454,617.5a1.6,1.6,0,0,0,0-1.761c0-.734-1.321-1.174-1.908-1.761h-.88l1.614-2.2,11.593,8.658,3.228,2.348a12.37,12.37,0,0,1,4.109,4.549,13.455,13.455,0,0,1,1.614,5.723,19.9,19.9,0,0,1-4.4,12.473,29.125,29.125,0,0,1-6.75,6.6,14.669,14.669,0,0,1-10.419,2.2,22.927,22.927,0,0,1-8.071-4.4l-12.18-8.8ZM129.808,420.129h-2.641l-.88-14.674V401.2a13.234,13.234,0,0,1,.88-6.31,13.683,13.683,0,0,1,3.375-5.136,19.234,19.234,0,0,1,12.473-4.549,22.164,22.164,0,0,1,9.392,1.027,15.607,15.607,0,0,1,8.364,7.19,26.719,26.719,0,0,1,1.614,9.538l.734,16h-2.641a15.33,15.33,0,0,0,0-3.669,3.577,3.577,0,0,0-1.761,0L132.89,416.46a1.469,1.469,0,0,0-1.614,1.027,7.977,7.977,0,0,0,0,2.641Zm72.2-243.008,9.1-11.3,2.054,1.614-.88,1.174s-1.468,1.614-1.027,2.788a14.667,14.667,0,0,0,2.641,2.495l18.783,14.674a11.8,11.8,0,0,0,3.082-1.761l.88-.88,1.908,1.614-10.712,13.354-2.054-1.614,1.614-2.054a2.031,2.031,0,0,1,0-1.027,1.2,1.2,0,0,0,0-1.174A4.146,4.146,0,0,0,226.219,194l-21.278-17.169L224.9,205.442l-1.321,1.908-31.7-12.327L209.344,209.7c3.228,2.641,6.017,4.256,8.8,0l2.055,1.761-8.071,9.979-2.054-1.321c2.495-3.228,1.174-5.136-1.908-7.631l-16.435-13.354s-1.614-1.614-2.641-1.321-1.614,1.467-2.2,2.054v.88l-2.054-1.761,9.1-11.3,21.571,8.364Zm72.345-53.855c-2.495-3.375-4.4-3.962-7.484-1.761l-1.614-2.2,10.419-7.484,1.467,2.2c-1.614,1.614-2.788,2.935-1.614,5.576a24.491,24.491,0,0,0,2.348,3.522l14.674,21.131-1.321,1.614-33.751-10.272,10.859,14.674c2.495,3.375,4.549,4.549,7.924,2.2l1.467,2.2-10.419,7.484-1.614-2.054c3.375-2.641,3.082-3.962,0-7.631l-13.06-18.05a5.12,5.12,0,0,0-5.43.734l-1.614-2.2,9.245-6.75,27.735,8.364Zm24.36-18.05,12.326,22.158c.881,1.467,1.174,1.908,2.788,1.321l2.935-1.614,1.321,2.348-15.848,8.8-1.321-2.348a17.113,17.113,0,0,0,3.375-2.2v-1.321a5.952,5.952,0,0,0,0-1.614l-13.06-21.718a11.76,11.76,0,0,0,0-1.761h-1.761c-4.4,2.495-3.082,9.392-1.321,13.5l-2.054,1.027-5.87-12.033L306.195,95.09l7.191,11.446-2.054,1.174c-2.788-3.815-7.778-8.511-12.18-6.017,0,0-1.174,1.027-.88,1.614Zm-50.333,43.143-1.761,1.614c-6.31-3.962-10.125-4.7-14.674,0a7.1,7.1,0,0,0-1.908,2.641,1.788,1.788,0,0,0,0,1.174,7.3,7.3,0,0,0,1.614,2.054l6.457,6.9c3.522-2.788,3.082-6.31,0-9.979l1.614-1.614,12.033,12.62-1.761,1.614a6.752,6.752,0,0,0-9.509-.91,6.659,6.659,0,0,0-.91.91l7.484,8.071c1.467,1.614,2.2,2.495,3.962,1.027l1.908-1.467c5.136-4.843,4.549-9.245,1.027-15.7l1.761-1.467,8.658,10.125-22.305,20.838L240.16,184.9c.88-1.027,3.522-2.495,2.495-4.109a3.344,3.344,0,0,0-1.027-1.467l-17.463-18.637-.88-.734a.893.893,0,0,0-1.174,0,21.452,21.452,0,0,0-2.935,2.348l-1.321-2.495,22.158-20.691Zm-55.616,62.807-1.174,1.908c-4.4-1.908-10.859-3.522-13.5.88v1.761l1.761,1.027,21.571,13.207c1.614,1.027,1.908,1.174,3.082,0a30.157,30.157,0,0,0,1.908-2.788l2.2,1.321-9.392,15.555-2.348-1.321c.734-1.174,1.321-2.348,1.908-3.522a1.492,1.492,0,0,0,0-1.321l-1.467-1.174L176.18,223.785l-2.348-1.174s-1.321,0-1.614.734c-2.641,4.4,1.908,9.685,5.43,12.473l-1.027,1.908-11.3-7.631,15.555-25.533ZM169.87,240.514a9.108,9.108,0,0,1,4.373,12.106l-.264.514a8.666,8.666,0,0,1,9.685-3.082l6.457,1.321c1.908-1.761-1.761-3.669-3.082-4.4l.88-2.054a11.346,11.346,0,0,1,2.641,1.467,7.044,7.044,0,0,1,2.2,9.392,6.633,6.633,0,0,1-4.256,3.669,8.45,8.45,0,0,1-5.576,0l-2.788-1.174c-3.962-1.467-6.75-2.495-8.8,1.174l-1.467,3.228,10.419,4.843H181.9c1.027,0,1.321,0,1.761-.734a34.113,34.113,0,0,0,1.614-3.082l2.348,1.174-7.337,16-2.495-1.027a15.162,15.162,0,0,0,1.027-2.348c.881-1.908,0-2.2-1.761-3.228l-20.1-10.125s-2.641-1.174-3.815,0a15.054,15.054,0,0,0-2.348,2.935l-2.348-1.027,7.337-16.142,1.614-3.082a11.818,11.818,0,0,1,4.843-5.87,9.245,9.245,0,0,1,7.631-.44m2.788,46.078c3.082,0,3.962,0,4.989-3.228l2.495.88-4.7,14.674-2.495-.734c0-.88.88-2.495,0-3.228s-1.321,0-2.2,0h-5.87l-3.522,10.859a13.454,13.454,0,0,0,4.256,2.788c2.788.88,4.109-1.174,4.7-3.228l2.495.88-3.815,12.326-2.495-.88c0-3.522-2.788-6.163-5.43-8.364L138.76,291.581l1.027-3.228Zm-27.294,21.571c8.8,1.614,8.658,10.125,7.337,16.289L151.673,329l9.832,2.054a11.432,11.432,0,0,0,2.935-1.027,26.509,26.509,0,0,0,.88-3.375h2.495l-3.375,17.316H161.8v-2.641c0-1.908,0-2.2-2.348-2.495s-25.533-5.576-25.827-5.43-1.467,0-1.467.88a13.4,13.4,0,0,0-1.027,3.669h-2.641l4.109-20.1a13.51,13.51,0,0,1,4.109-7.484,8.821,8.821,0,0,1,8.658-2.2m-4.7,40.795v2.2c-7.337,1.321-10.566,3.375-11.152,10.566a7.969,7.969,0,0,0,0,3.228s0,.734,1.027.88a11.814,11.814,0,0,0,2.495,0l9.392.734c0-4.549-1.908-6.9-6.6-7.631v-2.348l17.316,1.027v2.495c-4.842,0-8.071,2.054-8.218,6.6l10.859.734c2.348,0,3.375,0,3.669-1.908a6.317,6.317,0,0,0,0-2.348c0-7.044-2.788-9.832-9.979-12.326v-2.2l13.207,1.467-1.321,31.4h-2.2c0-1.174.88-4.256-.88-4.7a3.577,3.577,0,0,0-1.761,0l-25.533-1.908h-1.027a1.027,1.027,0,0,0-1.027.734,30.577,30.577,0,0,0,0,3.669h-3.522l2.2-30.229ZM145.8,494.234a11.439,11.439,0,0,1,7.631-6.75l18.93-7.337a1.313,1.313,0,0,0,1.174-1.174,17.314,17.314,0,0,0-1.027-3.522l2.495-.88,5.87,14.674-2.495.88c0-1.027,0-2.935-2.2-3.522a4.55,4.55,0,0,0-2.348,0l-14.674,5.87a20.829,20.829,0,0,0-6.017,2.935,5.253,5.253,0,0,0-2.054,3.815,10.2,10.2,0,0,0,0,4.109,7.057,7.057,0,0,0,5.283,4.549,13.617,13.617,0,0,0,7.924-1.467l12.033-4.549c2.348-.88,4.989-2.054,4.843-4.549a6.163,6.163,0,0,0,0-2.2l2.495-.88,4.4,11.3-2.495.88c-1.614-3.669-4.109-3.228-7.924-1.908l-13.354,5.136a16.711,16.711,0,0,1-4.7,1.174,10.392,10.392,0,0,1-8.218-2.054,20.925,20.925,0,0,1-5.576-14.234ZM385.29,73.372l2.054,10.272c4.7-.88,5.576-3.228,5.576-8.218h2.2l3.522,17.022H396.3a9.893,9.893,0,0,0-1.468-3.375,5.435,5.435,0,0,0-6.6-2.788l2.2,11.006c0,2.495,0,3.082,3.228,2.641h2.788v2.495l-17.169,3.522v-2.641h2.641a1.62,1.62,0,0,0,1.174,0,12.551,12.551,0,0,0,0-2.348l-5.723-26.12c0-.88,0-2.054-1.467-2.2a15.878,15.878,0,0,0-2.641,0h-1.174V70l29.349-5.87,2.935,12.913h-2.2c-2.788-6.31-6.163-9.392-12.62-8.218a6.394,6.394,0,0,0-3.522,1.467,3.648,3.648,0,0,0-.734,3.082M372.523,88.047a20.278,20.278,0,0,1-.734,14.674,16.154,16.154,0,0,1-9.979,8.658,14.669,14.669,0,0,1-12.913-1.761,20.973,20.973,0,0,1-8.658-11.006,20.719,20.719,0,0,1,0-14.674,16.544,16.544,0,0,1,9.685-7.777,15.376,15.376,0,0,1,13.354,1.467,19.1,19.1,0,0,1,9.245,11.153Zm67.649-22.012L447.8,88.047l6.31-18.637a8.281,8.281,0,0,0,0-1.908c0-2.348-2.788-3.228-4.549-3.082V61.046h13.207v2.788c-3.375,0-5.136,3.815-6.31,6.9l-9.538,27.588h-3.669L431.661,68.089a3.462,3.462,0,0,0-2.935-3.522h-1.761V61.486h16.289v2.641c-1.027,0-3.228,0-3.815.88a3.545,3.545,0,0,0,.734,1.761Zm32.577-1.467-.734-.88a16.589,16.589,0,0,0-3.815,0V61.192l30.229,3.082L497.4,77.187h-2.348c-1.174-7.484-3.082-10.859-10.272-11.593a6.029,6.029,0,0,0-3.228,0,1.5,1.5,0,0,0,0,.88,7.124,7.124,0,0,0,0,2.495l-1.027,9.392c4.549.88,6.9-1.761,7.924-6.31h2.2l-1.614,17.316H486.69c0-4.843-1.761-8.071-6.31-8.364l-1.174,10.859c0,2.2,0,3.228,1.761,3.815h2.495c7.044.734,9.832-2.641,12.473-9.685h2.2L496.229,99.2l-30.376-3.082V93.329c1.174,0,4.109,1.027,4.7,0a3.577,3.577,0,0,0,0-1.761l2.641-25.387a3.3,3.3,0,0,0-.44-.88Zm72.345,12.327a10.325,10.325,0,0,0-3.522-1.467l.88-2.054L571.068,83.2l-3.962,12.473h-2.054c0-7.484,0-11.3-7.337-13.5a6.676,6.676,0,0,0-3.228,0h-1.027a5.909,5.909,0,0,0-1.174,2.348L549.2,93.476c4.109,1.761,7.044,0,9.1-4.4h2.2l-5.136,16.876h-2.348a6.905,6.905,0,0,0-3.111-9.245,7.681,7.681,0,0,0-1.144-.44l-3.522,10.419c0,2.054-1.174,3.082.881,3.962l2.2,1.027c6.75,2.348,10.272,0,14.674-6.457l2.055.88-5.43,11.3L530.273,107.27l.88-2.495c1.174,0,3.815,1.908,4.843,0a14.834,14.834,0,0,0,0-1.614L544.361,79.1V78.068c0-.293,1.174-.147.734-.44ZM578.846,88.78h-1.321l1.174-2.348,16,7.777,3.082,1.614a13.286,13.286,0,0,1,5.723,4.989,9.573,9.573,0,0,1,0,7.777,8.949,8.949,0,0,1-12,4.006c-.22-.1-.411-.22-.616-.338a8.5,8.5,0,0,1,2.788,9.685v3.228a11.9,11.9,0,0,0,0,3.228,1.251,1.251,0,0,0,0,.734c1.614,1.908,3.522-1.614,4.4-2.935l2.054.88a9.978,9.978,0,0,1-1.614,2.641A6.9,6.9,0,0,1,589.4,133.2a7.579,7.579,0,0,1-1.746-1.13,6.61,6.61,0,0,1-2.935-4.4,9.02,9.02,0,0,1,0-5.43l1.174-2.788c1.614-3.962,2.641-6.75-1.027-8.951l-1.761-.88h-1.321l-5.136,10.272v3.375a7.322,7.322,0,0,0,2.054,1.174h1.027l-1.174,2.495L562.7,119.156l1.321-1.761,2.2.88c2.054,1.027,2.348,0,3.375-1.614l10.125-20.691c0-.88,1.761-3.082,1.468-3.815a7.839,7.839,0,0,0-2.348-2.641Zm48.866,63.834-1.468,2.2-13.06-8.8,1.467-2.2s2.054,1.614,2.935,1.321,1.027-1.027,1.174-1.908l1.467-5.723-9.538-5.43a20.354,20.354,0,0,0-3.815,3.375c-1.614,2.348,0,4.256,1.908,5.283l-1.467,2.2-10.859-7.044,1.467-2.348c3.228,1.761,6.75-.88,9.538-2.788l23.332-16.435,2.788,1.908-7.484,31.7c-.587,2.788-.734,3.669,1.614,5.43ZM534.382,85.405h-2.348c0-4.7,0-11.446-5.136-12.473h-1.614a8.036,8.036,0,0,0,0,2.054l-6.016,24.8c0,1.761,0,2.2,1.027,2.935h3.375v2.641l-18.343-2.641V100.08h3.962a1.334,1.334,0,0,0,1.849-.293,1.513,1.513,0,0,0,.206-.44,3.966,3.966,0,0,0,0-1.761l5.576-24.213v-2.2s0-1.027-1.321-1.174c-4.989-1.174-8.511,4.989-9.979,9.245h-2.2l3.669-13.06,29.349,6.457Zm133.977,107.27a5.788,5.788,0,0,0,8.658,1.027,5,5,0,0,0,0-7.044l-1.761-2.935a19.872,19.872,0,0,1-3.228-9.1,10.712,10.712,0,0,1,3.522-8.364,10.976,10.976,0,0,1,16.582,1.174,12.911,12.911,0,0,1,3.228,7.631h3.375l1.321,1.321-9.392,9.245-1.468-1.614a13.5,13.5,0,0,0,0-15.555,5.723,5.723,0,0,0-8-1.233l-.073.059c-2.641,2.495-1.321,5.283,0,7.631l1.468,2.641c3.228,5.723,5.87,11.74,0,17.609a11.593,11.593,0,0,1-9.245,3.082A11.749,11.749,0,0,1,665.718,194a14.679,14.679,0,0,1-3.522-8.951h-4.109l-1.321-1.467,10.272-9.685,1.467,1.614a14.673,14.673,0,0,0-.147,17.169m69.41,44.023v-1.174l2.348-1.027,12.62,26.854-11.886,5.87-.881-2.054c5.43-4.256,7.778-8.218,4.989-14.674a3.608,3.608,0,0,0-4.843-3.082l-9.245,4.4c1.761,4.549,4.4,4.7,9.245,3.522l1.027,2.054-15.7,7.337-1.027-2.054a14.729,14.729,0,0,0,3.082-2.2,5.727,5.727,0,0,0,1.174-7.044l-9.979,4.7c-2.495,1.174-2.935,1.467-1.908,3.669l1.027,2.641-2.495,1.174-7.631-16.435L710.035,248l1.174,2.495a2.7,2.7,0,0,0,.734,1.027l2.2-.88L736.6,240.073s1.761-.88,1.761-1.761a8.842,8.842,0,0,0-.587-1.027ZM770.2,335.457v-1.321h2.788l2.495,18.05h-2.641v-1.467a4.124,4.124,0,0,0-1.027-2.788h-1.027a3.339,3.339,0,0,0-1.614,0l-24.8,3.375s-1.907,0-2.2,1.027v.734a11.016,11.016,0,0,0,0,2.2v1.027h-2.641l-2.348-17.316h2.641v2.935c0,2.054,1.614,1.614,3.522,1.321l24.213-3.228h1.614a1.051,1.051,0,0,0,1.027-.88,15.437,15.437,0,0,0,0-3.082ZM741.732,329c-2.495,1.761-3.229,2.2-2.641,5.136l-2.495.734-3.669-15.408h2.495c0,.88,0,2.495,1.321,2.935s1.467,0,2.054,0l4.989-3.228-2.641-11.153a30.012,30.012,0,0,0-5.136,0c-2.788,0-2.788,3.228-2.2,5.283h-2.641l-3.082-12.62h2.641c1.174,3.375,5.576,3.962,8.952,4.4l28.175,3.669.88,3.228Zm9.538-30.963v-2.2c5.87-3.669,8.511-7.337,6.457-13.5,0-1.321,0-2.641-2.054-3.375s-1.761,0-2.495,0l-9.685,3.375c1.321,4.549,3.962,5.136,8.8,4.4l.881,2.2-16.435,5.723v-2.2a14.277,14.277,0,0,0,3.228-1.908,5.723,5.723,0,0,0,1.908-6.9l-10.566,3.669c-2.495.734-3.082,1.027-2.348,3.375l.88,2.788-2.641.88-5.87-17.169,2.495-.88.88,2.641a4.018,4.018,0,0,0,0,1.027,5.557,5.557,0,0,0,2.2,0l23.479-8.071c.88,0,2.054-.734,1.907-1.614a5.734,5.734,0,0,0,0-2.641v-1.027l2.495-.88,9.685,28.028ZM715.611,549.263a20.562,20.562,0,0,1-9.832-10.712,14.7,14.7,0,0,1,0-12.18,11.505,11.505,0,0,1,5.87-5.576l-1.174-3.375.88-1.614,12.767,6.75-.881,1.908c-5.283-1.614-12.62-2.348-14.674,2.495a6,6,0,0,0,0,6.6,16.985,16.985,0,0,0,4.989,5.283l5.283,3.375a61.292,61.292,0,0,0,7.044,3.082,10.52,10.52,0,0,0,6.31,0,7.031,7.031,0,0,0,4.549-3.522,10.715,10.715,0,0,0-4.843-13.5l1.761-1.908c7.043,5.87,8.658,11.593,4.842,18.49a13.35,13.35,0,0,1-10.125,7.044,19.687,19.687,0,0,1-12.767-2.054Zm58.7-161.419a9.086,9.086,0,0,1-6.9,3.522c-6.163,0-8.658-4.549-9.245-9.392a8.792,8.792,0,0,1-7.337,6.9l-3.082.88a12.319,12.319,0,0,0-3.375.88c-.88,2.348,3.229,2.495,4.843,2.641v2.935h-3.082a6.9,6.9,0,0,1-6.163-7.484,6.459,6.459,0,0,1,2.055-5.136,8.655,8.655,0,0,1,5.283-1.908h2.935c4.256,0,7.191,0,7.484-4.989a9.631,9.631,0,0,0,0-2.054V372.73H744.52c-1.027,0-1.321,0-1.321,1.467a12.53,12.53,0,0,0,0,2.348v1.027h-2.642V359.817h2.788v2.348c0,2.2,1.027,2.2,3.082,2.2h23.186a11.232,11.232,0,0,0,3.962,0c.88-.88,0-1.908,0-3.082v-1.761h1.907v21.131a12.046,12.046,0,0,1,0,7.337Zm0-178.881a19.373,19.373,0,0,1,11.593,20.4,75.2,75.2,0,0,1-6.457,20.691,76.837,76.837,0,0,0-3.962,15.555,18.339,18.339,0,0,1-10.712-20.1,77.994,77.994,0,0,1,5.87-20.251,84.822,84.822,0,0,0,4.843-16.142Zm-19.223-31.55a19.532,19.532,0,0,1,13.5,19.077,70.352,70.352,0,0,1-4.256,21.278,71.357,71.357,0,0,0-3.815,16,18.782,18.782,0,0,1-12.767-19.077A75.968,75.968,0,0,1,751.71,194a84.811,84.811,0,0,0,4.256-16.435ZM731.46,164.94a83.251,83.251,0,0,0,1.761-16.729,19.082,19.082,0,0,1,14.674,17.609,71.733,71.733,0,0,1-2.2,21.571,79.062,79.062,0,0,0-2.054,16.289,18.788,18.788,0,0,1-14.674-17.756,83.538,83.538,0,0,1,2.495-20.984m-3.669,49.306L708.127,240.22c-1.908,2.348-2.348,3.082,0,5.723l-2.348,1.467-8.364-13.354,2.2-1.467c0,.734,1.321,2.348,2.2,2.348s1.321,0,1.761-1.027l3.815-4.843-6.163-9.685A16.293,16.293,0,0,0,696.241,221c-2.348,1.467-1.614,3.815,0,5.576l-2.2,1.467-6.9-11.006,2.2-1.321c2.2,2.788,6.457,1.908,9.832,1.321l27.881-5.723ZM707.98,137.94a72.119,72.119,0,0,0,0-16.876,19.377,19.377,0,0,1,17.169,16,76.924,76.924,0,0,1,0,21.718,69.986,69.986,0,0,0,0,16.435,18.632,18.632,0,0,1-16.288-16.142,83.5,83.5,0,0,1-.44-21.131ZM680.393,96.7a19.078,19.078,0,0,1,18.49,14.674,77.249,77.249,0,0,1,3.228,20.691,77.689,77.689,0,0,0,1.027,16.289,18.186,18.186,0,0,1-17.756-14.674,77.177,77.177,0,0,1-2.348-20.984,87.688,87.688,0,0,0-1.614-16.729Zm-2.348,59.872c-1.908-1.174-3.375-2.054-5.723,0l-3.082,3.082-17.169,19.517-2.054-1.908,2.495-35.072-12.18,13.941c-2.788,3.228-3.522,5.43,0,8.218l-1.761,1.908-9.685-8.511L630.5,155.7c3.375,2.641,4.549,2.2,7.631-1.027L652.8,137.94a5.445,5.445,0,0,0-1.761-5.283l1.761-1.908,8.511,7.484-2.054,29.349,9.538-10.859c2.788-3.082,3.082-5.136,0-7.777l1.761-2.054L680.1,155.4Zm-25.533-81.59a19.056,19.056,0,0,1,17.756,12.327,74.807,74.807,0,0,1,4.256,21.278,73.416,73.416,0,0,0,2.641,16.142,18.337,18.337,0,0,1-19.077-12.473,75.16,75.16,0,0,1-4.4-20.691,73.84,73.84,0,0,0-3.375-16.435Zm-13.06-8.218a77.54,77.54,0,0,1,6.75,21.278,70.009,70.009,0,0,0,4.255,14.674,15.34,15.34,0,0,1-3.669,0,18.634,18.634,0,0,1-16.582-10.859,76.415,76.415,0,0,1-6.457-18.49,76.315,76.315,0,0,0-4.989-16,19.515,19.515,0,0,1,21.131,9.392ZM590.878,40.5a19.192,19.192,0,0,1,16.142,8.951,68.1,68.1,0,0,1,8.364,20.1A76.561,76.561,0,0,0,621.4,84.231a18.788,18.788,0,0,1-21.278-8.658,84.142,84.142,0,0,1-8.511-19.37,73.572,73.572,0,0,0-6.9-14.821,19.109,19.109,0,0,1,6.163-.88m-18.049-4.989A78.012,78.012,0,0,1,583.1,54.589a70.351,70.351,0,0,0,7.337,14.674,18.783,18.783,0,0,1-22.011-6.31,91.077,91.077,0,0,1-10.419-18.93,76.56,76.56,0,0,0-7.924-14.674,19.676,19.676,0,0,1,22.745,6.163M537.17,24.947a69.24,69.24,0,0,1,12.18,17.9,75.047,75.047,0,0,0,8.8,13.794A18.342,18.342,0,0,1,535.7,52.534a79.964,79.964,0,0,1-12.18-17.316,84.969,84.969,0,0,0-9.392-13.941,19.372,19.372,0,0,1,23.039,3.669m-36.246-6.9a73.376,73.376,0,0,1,13.794,16.582,77.635,77.635,0,0,0,10.125,12.913,18.932,18.932,0,0,1-22.892-1.908,80.936,80.936,0,0,1-13.794-16.289,71.689,71.689,0,0,0-10.712-12.913,19.527,19.527,0,0,1,23.479,1.614m-36.98-3.375a74.741,74.741,0,0,1,14.675,14.674,69.109,69.109,0,0,0,11.446,11.886,18.935,18.935,0,0,1-23.039,0,82.675,82.675,0,0,1-14.674-14.674,73.459,73.459,0,0,0-12.033-11.74,19.5,19.5,0,0,1,23.626-.147m-37.126,0a77.842,77.842,0,0,1,17.022,14.674,67.812,67.812,0,0,0,12.327,10.566A18.5,18.5,0,0,1,433.422,42.7a91.724,91.724,0,0,1-16.729-13.354,82.143,82.143,0,0,0-13.06-10.566,19.517,19.517,0,0,1,23.185-4.109m-36.833,4.109a69.721,69.721,0,0,1,18.636,12.18,73.443,73.443,0,0,0,13.354,9.245,16.587,16.587,0,0,1-13.647,6.6,27.728,27.728,0,0,1-8.658-1.614,88.11,88.11,0,0,1-17.9-11.3,76.261,76.261,0,0,0-14.674-9.245,19.509,19.509,0,0,1,22.892-5.576ZM353.74,26.414a75.053,75.053,0,0,1,19.37,10.125,69.589,69.589,0,0,0,14.674,7.777,18.486,18.486,0,0,1-21.718,7.19,80.775,80.775,0,0,1-18.93-9.392,73.189,73.189,0,0,0-14.674-7.777,19.362,19.362,0,0,1,21.278-7.631Zm-35.365,11.3a70.972,70.972,0,0,1,20.251,8.071A76.469,76.469,0,0,0,353.3,52.241a18.183,18.183,0,0,1-20.984,9.245A92.8,92.8,0,0,1,312.5,54a75.323,75.323,0,0,0-15.555-6.31,19.22,19.22,0,0,1,21.425-9.685ZM283.009,52.388h1.467A69.192,69.192,0,0,1,305.9,58.7a70.078,70.078,0,0,0,14.674,4.989,18.492,18.492,0,0,1-19.957,11.3,88.368,88.368,0,0,1-20.544-5.576,80.978,80.978,0,0,0-16-4.7,19.081,19.081,0,0,1,18.93-12.033ZM252.046,70.731h1.321a82.465,82.465,0,0,1,20.1,3.962,79.58,79.58,0,0,0,16,3.375,18.781,18.781,0,0,1-18.783,13.207h-1.027a87.133,87.133,0,0,1-19.81-3.228,76.605,76.605,0,0,0-16.582-2.935,19.2,19.2,0,0,1,18.783-14.381M221.523,91.862a74.586,74.586,0,0,1,21.571,1.761,63.913,63.913,0,0,0,16.435,1.761,18.475,18.475,0,0,1-17.316,14.674,89.5,89.5,0,0,1-21.131-1.467,111.945,111.945,0,0,0-14.674-1.467h-2.495a19.227,19.227,0,0,1,17.609-15.261m-28.175,24.213a74.8,74.8,0,0,1,21.718,0,86.289,86.289,0,0,0,16.289,0,18.184,18.184,0,0,1-15.7,16,84.437,84.437,0,0,1-20.984.734h-9.1a38.266,38.266,0,0,0-7.778,0,19.08,19.08,0,0,1,15.555-16.729m-25.68,26.707a75.411,75.411,0,0,1,21.571-2.641,77.235,77.235,0,0,0,16.435-1.467A18.776,18.776,0,0,1,191,156.87a87.632,87.632,0,0,1-20.838,2.788,75.911,75.911,0,0,0-16.876,1.908,19.206,19.206,0,0,1,14.381-18.783m-22.745,29.349a74.112,74.112,0,0,1,21.278-4.843,83.423,83.423,0,0,0,16-2.935,18.5,18.5,0,0,1-12.18,19.37,87.6,87.6,0,0,1-20.544,4.843,78.78,78.78,0,0,0-16.435,3.669,18.931,18.931,0,0,1,11.446-20.251Zm-19.957,31.257a68.487,68.487,0,0,1,20.691-6.75,87.452,87.452,0,0,0,15.7-4.7,18.64,18.64,0,0,1-10.125,20.544,87.084,87.084,0,0,1-20.1,6.9,83.284,83.284,0,0,0-15.848,5.136,18.935,18.935,0,0,1,9.685-21.278Zm-16.582,33.164a70.145,70.145,0,0,1,19.81-8.8,71.3,71.3,0,0,0,14.674-6.31,18.342,18.342,0,0,1-8.071,21.425,80.746,80.746,0,0,1-19.223,8.951,79.514,79.514,0,0,0-14.674,6.75,18.936,18.936,0,0,1,7.484-22.158ZM95.03,271.036a77.062,77.062,0,0,1,18.93-10.712,68.354,68.354,0,0,0,14.674-7.631,18.352,18.352,0,0,1-5.87,22.158,79.616,79.616,0,0,1-18.2,10.712,85.134,85.134,0,0,0-14.674,8.218A19.227,19.227,0,0,1,95.03,270.89ZM85.785,306.7a71.944,71.944,0,0,1,17.609-12.473,73.185,73.185,0,0,0,13.647-9.1,18.2,18.2,0,0,1-4.109,23.039,89.83,89.83,0,0,1-17.022,12.473,68.484,68.484,0,0,0-13.647,9.685A19.078,19.078,0,0,1,85.785,306.7m-6.163,36.539A71.149,71.149,0,0,1,95.911,328.56a75.559,75.559,0,0,0,12.62-10.566,18.484,18.484,0,0,1-1.321,22.892,87.553,87.553,0,0,1-15.7,14.674,78.011,78.011,0,0,0-12.767,11.006,19.223,19.223,0,0,1,.44-23.332Zm-2.495,36.98a70.032,70.032,0,0,1,14.674-15.7,71.913,71.913,0,0,0,11.593-11.74,18.63,18.63,0,0,1,.881,22.892,87.066,87.066,0,0,1-14.674,15.7,73.481,73.481,0,0,0-11.593,12.18,19.082,19.082,0,0,1-1.321-23.332Zm1.174,36.98a70.9,70.9,0,0,1,13.207-17.169A65.86,65.86,0,0,0,101.78,387.4a18.493,18.493,0,0,1,2.788,23.479,86.976,86.976,0,0,1-12.62,16.876,68.268,68.268,0,0,0-10.272,13.354,19.354,19.354,0,0,1-3.815-23.919Zm4.843,36.833a68.952,68.952,0,0,1,11.446-18.49,74.93,74.93,0,0,0,8.951-13.647,18.493,18.493,0,0,1,5.43,22.305,82.484,82.484,0,0,1-10.859,18.2,81.917,81.917,0,0,0-8.951,14.674A19.363,19.363,0,0,1,82.7,454.026Zm8.511,36.1a68.256,68.256,0,0,1,8.8-19.517,73.738,73.738,0,0,0,7.631-14.674,18.351,18.351,0,0,1,7.484,21.571,78.373,78.373,0,0,1-8.951,19.077,79.884,79.884,0,0,0-7.484,14.674,19.246,19.246,0,0,1-7.924-21.131ZM103.688,525.2a73.288,73.288,0,0,1,7.484-20.4,69.242,69.242,0,0,0,6.163-14.674,18.2,18.2,0,0,1,9.685,20.691,82.863,82.863,0,0,1-7.044,20.1,69.378,69.378,0,0,0-5.87,15.555A18.925,18.925,0,0,1,103.248,525.2Zm27.881,53.415A19.067,19.067,0,0,1,119.1,558.949a71.75,71.75,0,0,1,5.576-21.131,73.152,73.152,0,0,0,4.549-15.7,18.933,18.933,0,0,1,11.74,19.81,85.071,85.071,0,0,1-5.136,20.4,73.134,73.134,0,0,0-4.7,16.289Zm23.185,14.674a89.349,89.349,0,0,0-2.641,16.582,19.524,19.524,0,0,1-14.674-18.49,73.273,73.273,0,0,1,3.522-21.278,77.37,77.37,0,0,0,2.935-16.142A18.342,18.342,0,0,1,157.4,572.3a79.994,79.994,0,0,1-3.082,20.4Zm5.576-65.595c2.054,3.375,3.522,3.228,7.337,1.321L187.185,518.3a4.974,4.974,0,0,0,0-5.283l2.348-1.321,5.136,9.392-12.18,25.68,12.767-7.044c3.522-1.908,4.549-3.669,2.788-6.9l2.348-1.321,5.87,10.566-3.082.88c-1.467-1.761-2.495-2.935-5.136-2.054a19.531,19.531,0,0,0-3.962,1.761L171.19,555.133l-1.174-2.2,14.674-31.11-16.435,8.951c-3.669,1.908-4.989,3.669-3.228,7.19l-2.348,1.321-5.87-10.712Zm16.435,93.916a68.773,68.773,0,0,0-1.027,16.729,19.221,19.221,0,0,1-16.582-17.463,74.936,74.936,0,0,1,1.321-21.718,74.9,74.9,0,0,0,1.321-16.289,18.336,18.336,0,0,1,14.674,17.022,80.851,80.851,0,0,1-.147,21.131Zm5.136-56.5,1.467,2.2c1.321,1.467,2.2,0,3.815,0l19.957-14.674a3.143,3.143,0,0,0,1.321-1.027v-1.321a7.319,7.319,0,0,0-1.174-2.054l-.734-1.027,2.2-1.467,9.538,13.5-2.2,1.614-.88-1.174s-.88-1.761-2.054-1.908h-.88l-1.468.88-20.544,14.674s-1.614,1.174-1.468,2.054h0L189.827,577v1.027l-2.2,1.468-9.392-13.647Zm2.348,83.938a74.348,74.348,0,0,1-.88-21.718,83.907,83.907,0,0,0,0-16.289,18.341,18.341,0,0,1,16.876,14.674,74.549,74.549,0,0,1,1.174,21.131,74.15,74.15,0,0,0,0,16.729,19.232,19.232,0,0,1-17.609-15.115Zm27.294,25.093a73.048,73.048,0,0,1-3.082-21.571A64.976,64.976,0,0,0,206.7,636.43a18.2,18.2,0,0,1,18.343,13.5,81.414,81.414,0,0,1,3.375,20.984,71.075,71.075,0,0,0,2.348,16.582A19.507,19.507,0,0,1,211.1,673.556ZM240.894,696.3a75.55,75.55,0,0,1-5.283-21.278,77.852,77.852,0,0,0-3.082-16.289,18.784,18.784,0,0,1,19.664,11.74,83.625,83.625,0,0,1,5.283,20.544,86.16,86.16,0,0,0,3.962,16.142,19.239,19.239,0,0,1-20.691-11.446Zm31.7,19.223a73.593,73.593,0,0,1-7.191-20.4,72.291,72.291,0,0,0-4.989-15.555,18.633,18.633,0,0,1,20.838,9.685,88.336,88.336,0,0,1,7.337,19.81,68.3,68.3,0,0,0,5.576,15.848,19.654,19.654,0,0,1-21.718-9.979ZM305.9,730.933a69.719,69.719,0,0,1-9.245-19.664,77.038,77.038,0,0,0-6.6-14.674,18.5,18.5,0,0,1,21.718,7.777,79.817,79.817,0,0,1,9.392,19.077,86.451,86.451,0,0,0,7.044,14.674,19.075,19.075,0,0,1-22.305-7.19m34.778,12.473a73.921,73.921,0,0,1-11.006-18.49,70.712,70.712,0,0,0-8.071-14.674,18.78,18.78,0,0,1,22.305,5.283,87.628,87.628,0,0,1,11.153,18.2,77.284,77.284,0,0,0,8.658,14.674,19.511,19.511,0,0,1-22.892-4.989Zm35.952,8.951A78.487,78.487,0,0,1,364.6,735.042a71.45,71.45,0,0,0-9.392-13.5,18.78,18.78,0,0,1,22.745,3.082A83.461,83.461,0,0,1,390.866,741.5a71.849,71.849,0,0,0,9.979,13.5,19.519,19.519,0,0,1-24.066-2.641Zm36.686,5.43a74.908,74.908,0,0,1-14.674-16.142,72.1,72.1,0,0,0-10.712-12.326,18.63,18.63,0,0,1,22.892.88A82.833,82.833,0,0,1,425.5,745.754a78.912,78.912,0,0,0,11.3,12.327,19.372,19.372,0,0,1-23.332-.294Zm37.713,1.761a76.732,76.732,0,0,1-16.142-14.674A74.43,74.43,0,0,0,423.3,733.721a18.78,18.78,0,0,1,22.892-1.467,84.062,84.062,0,0,1,15.848,13.794,65.092,65.092,0,0,0,12.62,11.3,19.372,19.372,0,0,1-23.479,2.2Zm36.246-2.054a73.887,73.887,0,0,1-17.463-12.913A70.4,70.4,0,0,0,456.9,734.6a18.493,18.493,0,0,1,22.6-3.669,86.906,86.906,0,0,1,17.169,12.18,71.118,71.118,0,0,0,13.647,9.979,19.366,19.366,0,0,1-22.892,4.4Zm36.539-5.576a74.6,74.6,0,0,1-18.636-11.153,77.758,77.758,0,0,0-13.794-8.658,18.5,18.5,0,0,1,22.158-5.87,88.138,88.138,0,0,1,18.343,10.419,76.08,76.08,0,0,0,14.675,8.658,19.362,19.362,0,0,1-22.6,6.6Zm36.246-9.392a74.736,74.736,0,0,1-19.37-8.8,85.658,85.658,0,0,0-14.675-7.337,18.641,18.641,0,0,1,21.425-8.071,78.607,78.607,0,0,1,19.37,8.658,76.254,76.254,0,0,0,14.674,7.044,19.076,19.076,0,0,1-21.278,8.511Zm35.659-13.06a74.535,74.535,0,0,1-20.544-7.19,74.4,74.4,0,0,0-14.674-5.723,18.346,18.346,0,0,1,20.4-10.272,87.484,87.484,0,0,1,20.1,6.6,80.051,80.051,0,0,0,15.849,5.576,18.934,18.934,0,0,1-20.984,11.006Zm33.017-16.435a71.846,71.846,0,0,1-21.131-4.989,73.691,73.691,0,0,0-15.261-3.669,18.483,18.483,0,0,1,19.37-12.18,82.084,82.084,0,0,1,20.691,4.549,74.287,74.287,0,0,0,16.435,3.815,19.355,19.355,0,0,1-20.1,12.473M659.7,693.953a73.459,73.459,0,0,1-21.572-2.935,80.53,80.53,0,0,0-15.849-2.641,18.632,18.632,0,0,1,18.05-14.674,95.53,95.53,0,0,1,21.425,2.2,87.776,87.776,0,0,0,17.169,1.908,20.837,20.837,0,0,1-18.636,16.142Zm29.349-23.039a66.9,66.9,0,0,1-19.957,0,119.625,119.625,0,0,0-14.674-1.174H650.31a18.5,18.5,0,0,1,16.582-15.7,80.695,80.695,0,0,1,21.278,0,74.164,74.164,0,0,0,16.729,0,19.386,19.386,0,0,1-14.674,16.876Zm28.322-26.707a53.178,53.178,0,0,1-14.674,1.614h-6.6a72.908,72.908,0,0,0-16.288.734,18.489,18.489,0,0,1,14.674-17.463,86.361,86.361,0,0,1,21.278-1.908,80.436,80.436,0,0,0,16.582-1.027,19.064,19.064,0,0,1-13.794,18.05Zm24.946-29.349a72.472,72.472,0,0,1-21.425,3.815,67.44,67.44,0,0,0-16.142,2.348,18.207,18.207,0,0,1,12.914-18.783,84.2,84.2,0,0,1,20.837-4.109,77.586,77.586,0,0,0,16.582-2.788A19.373,19.373,0,0,1,743.492,615.3Zm21.572-30.816a72.011,72.011,0,0,1-21.131,5.87,83.731,83.731,0,0,0-15.7,3.962,18.356,18.356,0,0,1,11.006-19.957,83.3,83.3,0,0,1,20.4-6.163,84.224,84.224,0,0,0,16.142-4.4,19.369,19.369,0,0,1-9.538,21.131Zm18.05-32.43a68.811,68.811,0,0,1-20.251,7.924,83.662,83.662,0,0,0-14.674,5.576,18.65,18.65,0,0,1,8.951-20.984,80.917,80.917,0,0,1,19.664-8.071,76,76,0,0,0,15.555-6.163,19.07,19.07,0,0,1-8.071,22.158Zm14.674-33.9a69.655,69.655,0,0,1-19.223,9.832,88.122,88.122,0,0,0-14.675,7.044,18.492,18.492,0,0,1,6.9-21.865,83.566,83.566,0,0,1,18.783-9.979,86.86,86.86,0,0,0,14.674-7.484,19.085,19.085,0,0,1-5.283,22.892Zm11.446-35.365a73,73,0,0,1-18.2,11.74,79.119,79.119,0,0,0-14.674,8.511,18.634,18.634,0,0,1,4.549-22.452,87.841,87.841,0,0,1,17.756-11.74,83.526,83.526,0,0,0,14.675-9.1,19.524,19.524,0,0,1-2.935,23.479Zm7.631-36.246a71.427,71.427,0,0,1-17.022,13.647,66.012,66.012,0,0,0-12.914,9.685,18.183,18.183,0,0,1,2.348-22.745,82.489,82.489,0,0,1,16.436-13.5A87.688,87.688,0,0,0,817.6,422.77a19.372,19.372,0,0,1-.734,23.773Z" transform="translate(-63.48)" fill="#fff"/>
  <path id="Path_1122" data-name="Path 1122" d="M120.2,14.73l-13.06,2.641,4.843,7.777Z" transform="translate(533.545 201.424)" fill="#fff"/>
</svg>
